<?xml version="1.0" encoding="UTF-8"?>
<!DOCTYPE svg PUBLIC "-//W3C//DTD SVG 1.1//EN" "http://www.w3.org/Graphics/SVG/1.1/DTD/svg11.dtd">
<!-- Creator: CorelDRAW 2019 (64 Bit) -->
<svg xmlns="http://www.w3.org/2000/svg" xml:space="preserve" width="79.0637mm" height="79.0618mm" version="1.1" style="shape-rendering:geometricPrecision; text-rendering:geometricPrecision; image-rendering:optimizeQuality; fill-rule:evenodd; clip-rule:evenodd"
viewBox="0 0 1398.64 1398.61"
 xmlns:xlink="http://www.w3.org/1999/xlink">
 <defs>
  <style type="text/css">
   <![CDATA[
    .fil1 {fill:#FEFEFE;fill-rule:nonzero}
    .fil0 {fill:#00AD59;fill-rule:nonzero}
   ]]>
  </style>
 </defs>
 <g id="Camada_x0020_1">
  <metadata id="CorelCorpID_0Corel-Layer"/>
  <g id="_1848408097088">
   <path class="fil0" d="M699.31 1398.61c-122.4,0 -242.46,-32.37 -348.8,-93.86l-272.46 93.86 56 -288.51c-87.79,-120.31 -134.06,-261.83 -134.06,-410.79 0,-385.61 313.72,-699.32 699.31,-699.32 385.65,0 699.33,313.71 699.33,699.32 0,385.59 -313.68,699.29 -699.33,699.29z"/>
   <path class="fil1" d="M479.67 1020.12l13.77 8.62c62.04,38.89 133.24,59.45 205.88,59.45 214.46,0 388.91,-174.45 388.91,-388.89 0,-214.43 -174.45,-388.88 -388.91,-388.88 -214.43,0 -388.87,174.45 -388.87,388.88 0,87.24 28.58,169.91 82.6,239.04l9.55 12.21 -19.99 103 97.07 -33.43zm219.65 136.05c-79.96,0 -158.39,-21.17 -227.86,-61.34l-178 61.34 36.57 -188.5c-57.33,-78.6 -87.57,-171.04 -87.57,-268.37 0,-251.92 204.94,-456.85 456.85,-456.85 251.93,0 456.87,204.94 456.87,456.85 0,251.92 -204.94,456.87 -456.87,456.87z"/>
   <path class="fil1" d="M468.68 523.77c0,0 26.82,-46.85 48.67,-49.53 21.86,-2.69 49.99,-2.69 57.57,11.6 7.59,14.27 41.49,97.29 41.49,97.29 0,0 5.82,14.28 -3.1,28.12 -8.92,13.83 -29,33.91 -29,33.91 0,0 -11.16,14.28 0,29.46 11.16,15.15 28.46,43.05 64.27,78.82 35.75,35.8 104.41,61.31 104.41,61.31 0,0 9.83,1.32 16.09,-4.92 6.23,-6.24 40.17,-48.64 40.17,-48.64 0,0 10.88,-14.05 28.99,-5.8 18.07,8.25 96.39,47.3 96.39,47.3 0,0 9.17,3.34 9.17,17.18 0,13.83 -5.6,47.68 -17.05,59.12 -11.45,11.45 -44.91,46.74 -95.21,46.74 -50.29,0 -170.05,-40.93 -233.86,-104.73 -63.82,-63.83 -120.48,-128.55 -133.86,-187.44 -13.39,-58.92 -11.6,-85.54 4.88,-109.8z"/>
  </g>
 </g>
</svg>
