<?xml version="1.0" encoding="UTF-8"?>
<!DOCTYPE svg PUBLIC "-//W3C//DTD SVG 1.1//EN" "http://www.w3.org/Graphics/SVG/1.1/DTD/svg11.dtd">
<!-- Creator: CorelDRAW 2019 (64 Bit) -->
<svg xmlns="http://www.w3.org/2000/svg" xml:space="preserve" width="570.699mm" height="500.32mm" version="1.1" style="shape-rendering:geometricPrecision; text-rendering:geometricPrecision; image-rendering:optimizeQuality; fill-rule:evenodd; clip-rule:evenodd"
viewBox="0 0 141651.98 124183.45"
 xmlns:xlink="http://www.w3.org/1999/xlink">
 <defs>
  <style type="text/css">
   <![CDATA[
    .fil1 {fill:url(#id0)}
    .fil0 {fill:url(#id1)}
   ]]>
  </style>
  <linearGradient id="id0" gradientUnits="userSpaceOnUse" x1="70099.52" y1="104233.88" x2="70880.09" y2="110190.43">
   <stop offset="0" style="stop-opacity:1; stop-color:#EAD353"/>
   <stop offset="1" style="stop-opacity:1; stop-color:#C18C00"/>
  </linearGradient>
  <linearGradient id="id1" gradientUnits="userSpaceOnUse" xlink:href="#id0" x1="82102.04" y1="2751.46" x2="88346.93" y2="42625.63">
  </linearGradient>
 </defs>
 <g id="Camada_x0020_1">
  <metadata id="CorelCorpID_0Corel-Layer"/>
  <path class="fil0" d="M69779.16 42970.96c7255.1,-2340.01 12642.03,-5575.4 18645.16,-10628.22 7217.64,-6074.69 12555.06,-13556.15 12231.34,-22429.37 -43.26,-1199.14 -483.06,-3351.9 -1342.26,-4690.41 -1082.21,-1686.35 -3091.85,-2750.27 -4760.73,-2811.43 -7153.16,-262.55 -12367.41,9441.16 -14989.11,14654.18 -4181.56,8315.66 -7017.93,17870.43 -9784.41,25905.25zm-7877.97 2853.03c-5.41,1323.97 -8.34,2639.17 -8.34,3944.82 0,1823.24 27.48,4786.52 79.9,8895.68l99.03 -223.83c1673.87,-3809.17 3142.19,-9851.82 4523.99,-13820.77 -1589,476.81 -3159.69,879.15 -4694.58,1204.11zm-9527.29 28327.23l7.47 -355.31c-7924.14,-3749.68 -16631.35,-6836.96 -23617.24,-5983.6 -3656.9,446.45 -6278.6,1846.97 -7526.39,3625.28 -897.5,1044.76 -1287.75,2424.89 -1369.74,3665.21 -82.8,1249.45 176,2535.15 808.02,3747.99 6779.13,10374 25971,2061.24 31697.87,-4699.57zm10251.66 5543.8c828.84,3939.38 2920.02,5904.94 6257.37,5904.94l8485.02 0c488.9,0 968.21,-11.67 1437.55,-35.79 -2088.3,-580.83 -4197.79,-1236.57 -6309.37,-1953.05 -778.48,-264.64 -1589.4,-548.81 -2429.46,-852.12 -840.48,-302.91 -1645.17,-602.08 -2410.75,-894.57 -1585.25,-606.65 -3270.34,-1348.09 -5030.36,-2169.41zm-402.35 -3948.96c20.4,1152.93 106.11,2203.52 256.3,3154.25 1895.24,890.82 3708.9,1696.35 5410.66,2347.5 832.99,318.7 1633.08,616.62 2397.84,892.48 775.15,279.61 1582.75,562.12 2419.88,846.29 2685.78,912.04 5366.55,1723.8 8001.98,2407.42 1105.1,-143.54 2152.36,-361.56 3143.43,-654.5 1922.27,-594.14 3553.3,-1331.86 4853.96,-2253.46 1320.19,-922.02 2485.21,-2110.34 3495.02,-3544.14 1028.95,-1454.6 1864.02,-2909.2 2485.23,-4384.17 621.61,-1475 1184.55,-3175.5 1670.12,-5101.1 271.69,-41.18 504.71,-61.56 679.44,-81.96 194.32,-20.38 388.62,-20.38 582.52,40.78 174.32,61.58 310.38,102.36 388.2,122.74 77.79,20.8 232.99,102.78 465.99,245.9 213.46,143.54 407.76,245.9 563.38,327.86 -521.36,4965.45 -1424.64,10842.52 -2694.1,17630.36 2615.05,22.88 5053.66,-205.54 7251.77,-728.12l621.21 -146.47c1224.51,-287.92 2443.61,-574.6 3611.1,-968.63 1393.02,-470.58 2881.32,-827.58 4134.55,-1582.33 5251.29,-1735.45 10448.49,-10167.22 8980.98,-16937.17 -244.66,-1095.54 -584.18,-2207.29 -1075.14,-3232.91 -441.88,-922.44 -1015.22,-1771.24 -1605.63,-2550.14 -1303.99,-1651.4 -3186.72,-2914.19 -4882.23,-3826.62l-403.59 -200.97c-1151.29,-578.35 -2367.9,-1188.72 -3606.96,-1394.26l-170.17 -28.3c-230.93,-39.12 -455.19,17.9 -683.61,-0.84 -294.18,-24.97 -537.57,273.38 -1122.17,321.63 -584.58,48.28 -1412.15,-396.09 -1412.15,-672.37 0,-276.7 885.41,-500.54 1519.93,-500.54 724.4,0 1103.86,272.11 1691.76,372.39l168.09 28.3c1334.79,221.75 2384.53,847.13 3579.93,1446.26l577.08 302.91c1794.54,960.29 3355.65,2211.86 4858.92,3840.8 1298.57,1714.22 2523.08,3785.02 3009.89,5964.86 211.8,947.81 308.32,1925.18 287.1,2908.77 -20.4,981.51 -245.08,1956.38 -435.63,2937.49 -375.32,1932.25 -1044.36,3529.15 -1929.35,4919.68 -881.66,1384.68 -1965.96,2790.18 -3198.38,3884.06 -1198.7,1063.07 -2504.34,1998.82 -3931.89,2858.83 -1289.02,776.42 -2697.43,1276.96 -4142.05,1764.59 -1206.61,407.76 -2435.69,696.52 -3670.6,986.53l-618.71 146.44c-2281.75,542.98 -4813.99,774.73 -7527.63,743.11l-192.24 1011.08c-7125.7,0 -11766.2,0 -13882.77,0l-24794.76 0c-1184.55,0 -3534.13,0 -7028.75,0 -3514.58,0 -6213.66,0 -8116.38,0 -329.94,-327.88 -504.71,-758.1 -504.71,-1290.68 0,-532.56 174.76,-962.8 504.71,-1290.66 2310.47,0 3999.72,-102.36 5067.79,-286.68 1068.09,-184.32 2019.64,-655.74 2893.41,-1434.2 873.74,-778.48 1436.7,-1864.44 1688.83,-3257.46 162.7,-972.8 296.66,-2245.56 389.46,-3824.98l-21.22 39.51c-2539.74,2564.71 -5451.02,4167.41 -8685.57,5527.57 -1976.38,831.32 -4270.62,1621.87 -6383.02,1994.67 -3586.58,632.43 -7148.59,312.47 -10644.87,-962.38 -3066.49,-1038.53 -5079.45,-3053.18 -6275.67,-5348.24 -686.52,-1318.13 -991.91,-2808.92 -901.22,-4180.32 491.8,-4953.36 4957.95,-7441.5 9512.32,-7817.63 7195.6,-879.18 15510.02,1866.1 23552.76,5678.6 177.25,-9018.02 272.53,-16776.58 272.53,-23290.65 0,-897.89 -2.08,-1815.77 -4.99,-2753.99 -3675.61,124.8 -7010.04,-125.25 -9943.78,-720.65 -4186.97,-849.64 -7563,-2404.09 -9955.42,-4577.25 -1021.48,-927.85 -1888.99,-1951.81 -2603.38,-3053.16 -2344.6,-3611.13 -3036.53,-8037.74 -2166.11,-12631.21 866.27,-4569.76 3279.52,-9307.2 7149.43,-13567.4 2136.97,-2352.07 4719.95,-4561 7733.17,-6517.4 4951.72,-3214.17 10088.99,-4866.42 14518.53,-5652.79 4392.93,-575.02 7739.42,197.62 10153.49,1485.8 219.27,154.36 159.35,103.18 -10.4,10.4l151.03 87.37c74.88,58.68 2040.42,1294.83 918.27,1679.7 -496.79,170.17 -544.64,101.54 -999.83,-201.79 -205.12,-136.89 -189.73,-666.96 -324.95,-920.36 -627.87,-1177.9 -2849.7,-1692.18 -5079.45,-1895.22 -2182.29,-198.47 -2932.9,-55.35 -4645.06,104.84 -1729.61,307.06 -3501.67,648.24 -5343.22,1254.47 -2790.21,918.27 -5732.26,2340.43 -8855.34,4345.5 -2962.46,1923.09 -5626.58,4349.22 -7728.6,6663.02 -3786.26,4168.65 -6145.43,8792.5 -6989.64,13245.35 -839.22,4428.7 -178.09,8687.65 2070.38,12151.47 682.8,1051.83 1514.12,2032.53 2495.63,2923.77 2305.06,2094.11 5574.16,3594.87 9640.47,4419.96 2888.79,586.24 6179.54,831.32 9812.28,706.5 -28.69,-6702.14 -140.63,-14414.93 -322.45,-23137.95 -77.81,-2642.5 -252.55,-4670.85 -485.57,-6063.87 -252.13,-1372.64 -815.09,-2458.18 -1688.83,-3236.66 -873.77,-778.48 -1825.32,-1270.28 -2893.41,-1454.6 -1068.06,-184.32 -2757.32,-266.3 -5067.79,-266.3 -329.94,-327.86 -504.71,-758.08 -504.71,-1290.66 0,-532.58 174.76,-962.8 504.71,-1290.66 1670.12,0 4058.4,0 7164.82,0 3106.82,0 5727.7,0 7863.83,0 2155.26,0 4815.24,0 7979.91,0 3165.07,0 5553.33,0 7145.66,0 349.08,327.86 504.71,758.08 504.71,1270.28 0,532.58 -155.63,962.8 -504.71,1270.28 -1553.63,0 -2757.32,40.76 -3592.39,122.74 -835.07,81.54 -1689.28,266.28 -2543.46,552.96 -873.77,287.1 -1514.52,634.94 -1883.58,1085.96 -388.2,430.22 -757.26,1085.54 -1106.34,1946.4 -369.06,860.02 -621.64,1864.02 -777.24,3031.94 -116.09,1085.54 -193.9,2519.34 -232.6,4322.19 -175.16,7597.13 -285.41,14945.42 -319.12,22034.52 1619.78,-346.6 3279.5,-780.56 4957.11,-1297.76 824.67,-2385.35 1605.24,-4717.44 2350.01,-6943.45 1648.08,-4927.18 3125.56,-9342.55 4528.98,-12685.71 4749.91,-11312.68 9739.48,-18757.53 14428.23,-21390.02 6316.87,-3545.8 12762.28,-715.24 13039.81,6919.32 332.03,9102.9 -4999.16,16897.23 -12360.76,23093.02 -6196.61,5215.92 -12112.8,8872.37 -19589.67,11221.96 -1867.77,5388.6 -4074.21,14322.15 -6993.81,19737.77 -71.56,132.32 -143.54,262.13 -215.94,390.28 47.85,3343.59 106.51,7192.7 175.16,11550.26z"/>
  <path class="fil1" d="M70781.9 105226.64l371.54 1300.24 2074.97 685.28 -2074.97 684.86 -663.21 2323.38 -664.06 -2323.38 -2074.97 -684.86 2074.97 -685.28 664.06 -2322.95 291.67 1022.72zm62246.1 5216.76c27.05,1271.1 550.48,1904.38 1560.29,1904.38l1988 0c559.21,0 1063.92,-55.35 1519.11,-166.03 450.17,-114.85 832.14,-257.54 1137.12,-435.63 309.14,-178.09 582.1,-407.76 818.84,-684.86 240.91,-281.27 436.47,-562.54 582.1,-847.56 145.2,-284.99 277.1,-613.69 391.1,-985.68 63.67,-7.89 118.17,-12.06 158.95,-15.81 45.77,-4.15 91.12,-4.15 136.89,7.92 40.78,11.64 72.8,19.56 90.7,23.7 18.32,3.75 54.51,19.56 109.01,47.43 50.36,27.9 95.71,47.43 131.9,63.24 -131.9,1037.29 -368.22,2280.51 -704.84,3729.7 -1669.27,0 -2756.08,0 -3252.44,0l-5808.41 0c-277.52,0 -827.58,0 -1646.41,0 -823.41,0 -1455.84,0 -1901.47,0 -76.97,-63.24 -118.15,-146.44 -118.15,-249.23 0,-103.18 41.18,-186.4 118.15,-249.65 541.32,0 937.01,-19.53 1187.08,-55.33 250.04,-35.79 473.48,-126.91 677.78,-277.1 204.7,-150.64 336.59,-360.32 396.09,-629.53 54.51,-269.21 95.29,-657.4 113.6,-1167.92 49.52,-1979.68 76.97,-3662.31 76.97,-5052.4 0,-1440.87 -27.45,-3151.37 -76.97,-5131.06 -18.32,-510.94 -59.1,-902.88 -113.6,-1172.09 -59.5,-265.04 -191.39,-475.14 -396.09,-625.36 -204.3,-150.61 -427.74,-245.48 -677.78,-281.27 -250.07,-35.77 -645.76,-51.58 -1187.08,-51.58 -76.97,-63.24 -118.15,-146.47 -118.15,-249.23 0,-102.78 41.18,-186.01 118.15,-249.65 391.13,0 950.74,0 1678.46,0 727.72,0 1341.84,0 1842.37,0 504.71,0 1127.98,0 1869.43,0 741.45,0 1300.66,0 1673.47,0 82.38,63.64 118.57,146.86 118.57,245.48 0,103.18 -36.19,186.4 -118.57,245.48 -363.65,0 -645.76,7.92 -841.3,23.73 -195.56,16.23 -395.69,51.58 -595.82,106.93 -204.72,55.75 -354.91,122.74 -441.46,210.11 -90.7,83.22 -177.25,209.71 -258.81,376.13 -86.53,166.03 -146.05,360.32 -182.23,585.85 -27.45,209.69 -45.35,487.21 -54.51,835.47 -49.94,1789.55 -77.39,3507.92 -77.39,5151.01 0,728.56 27.45,2399.5 77.39,5020.38zm-20263.7 950.31c-82.38,138.55 -109.43,261.29 -86.55,376.13 22.49,110.68 49.52,205.94 86.55,281.24 36.21,79.05 113.18,146.47 231.75,209.71 118.17,63.24 231.75,110.68 341.19,150.22 104.45,39.94 240.91,67.39 404.43,91.12 163.94,23.7 314.13,43.68 446.03,59.5 136.46,15.81 286.26,23.7 455.19,23.7 76.97,63.24 118.17,146.47 118.17,249.65 0,102.78 -41.2,185.98 -118.17,249.23 -268.78,0 -718.98,0 -1360.58,0 -640.75,0 -1168.74,0 -1587.31,0 -386.53,0 -864.19,0 -1432.56,0 -564.2,0 -986.92,0 -1269.01,0 -81.98,-67.39 -123.16,-154.36 -123.16,-261.29 0,-106.93 41.18,-193.88 123.16,-261.29 663.63,0 1205.37,-114.85 1619.36,-348.26 409,-233.84 782.23,-681.11 1109.24,-1346.43l6331.84 -12998.18c318.72,0 796.38,-158.53 1424.24,-475.14l5703.97 13774.58c99.85,229.27 218.03,427.31 354.49,593.74 136.46,166.42 272.95,292.91 404.85,387.78 136.46,91.12 309.57,166.45 527.99,225.94 217.6,55.33 399.86,91.12 545.88,106.93 145.23,15.81 354.52,35.37 618.31,59.5 81.96,66.99 122.74,158.11 122.74,269.21 0,114.82 -40.78,201.79 -122.74,272.93 -236.77,0 -741.45,0 -1509.95,0 -769.32,0 -1364.72,0 -1792.46,0 -409.42,0 -1050.59,0 -1928.5,0 -873.34,0 -1423.82,0 -1642.24,0 -81.98,-67.39 -122.74,-158.11 -122.74,-269.18 0,-110.68 40.76,-201.79 122.74,-269.21 868.75,-55.35 1410.07,-114.85 1624.35,-182.23 436.47,-138.57 568.37,-423.57 399.86,-851.3l-1732.96 -4319.27 -5690.24 0c-300.41,0 -518.85,43.26 -645.76,126.49 -127.73,86.95 -232.57,218.03 -314.13,396.09l-1637.25 3678.12zm3092.7 -4960.88l4875.97 0 -2624.18 -6592.28 -81.96 0 -2865.93 6152.51c-63.67,130.63 -31.62,237.58 86.55,317.04 122.74,82.8 323.29,122.74 609.55,122.74zm-14287.2 -1876.9c509.7,0 891.66,-19.56 1146.3,-59.5 286.68,-31.62 518.83,-71.16 705.23,-122.74 186.4,-51.18 322.87,-150.22 409.42,-296.68 81.98,-146.44 141.06,-297.08 172.68,-443.52 32.04,-150.61 54.93,-376.13 73.22,-676.96 81.56,-75.31 181.42,-111.1 300.01,-111.1 118.15,0 218,35.79 300.41,111.1 -9.16,154.36 -32.04,455.19 -59.52,910.38 -32.02,451.44 -49.91,827.58 -49.91,1128.4 0,257.54 17.9,566.26 49.91,930.76 27.48,360.32 50.36,672.79 59.52,926.19 -82.41,67.39 -182.26,103.18 -300.41,103.18 -118.59,0 -218.45,-35.79 -300.01,-103.18 -18.29,-257.14 -41.18,-451.44 -68.65,-582.1 -27.03,-130.66 -86.53,-277.1 -177.25,-431.46 -95.68,-154.39 -227.58,-269.21 -400.68,-336.62 -172.26,-71.14 -409,-134.38 -713.97,-185.98 -282.11,-47.43 -664.06,-71.14 -1146.3,-71.14l-3197.54 0c-17.9,2775.21 0,4826.45 54.51,6152.51 9.16,317.04 104.87,566.26 286.68,748.5 181.84,182.26 422.72,273.38 723.13,273.38l4253.14 0c1678.43,0 2883.8,-1140.47 3611.53,-3420.98 205.12,-23.7 322.87,-31.62 359.48,-23.7 36.21,7.89 131.9,51.16 295.84,138.55 -259.63,1452.94 -587.09,2775.21 -987.35,3971.01 -1460.01,0 -2619.61,0 -3492.96,0l-6063.47 0c-272.93,0 -832.56,0 -1678.43,0 -845.89,0 -1483.32,0 -1919.79,0 -77.37,-63.24 -118.57,-146.44 -118.57,-245.48 0,-102.76 41.2,-185.98 118.57,-249.23 364.07,0 645.76,-7.89 841.33,-19.98 195.96,-15.81 391.52,-51.58 591.23,-106.93 200.55,-55.33 346.18,-122.74 432.3,-209.69 91.12,-83.22 173.08,-209.71 254.64,-376.13 82.38,-166.45 131.9,-360.32 159.35,-582.1 27.05,-221.77 49.94,-502.62 68.26,-843.39 36.19,-1298.57 50.34,-2981.18 50.34,-5044.08 0,-2114.06 -14.15,-3820.81 -50.34,-5123.14 -18.32,-340.76 -41.2,-621.61 -68.26,-843.39 -27.45,-221.75 -76.97,-416.07 -159.35,-582.07 -81.56,-166.45 -163.52,-292.94 -254.64,-376.13 -86.13,-87.37 -231.75,-154.36 -432.3,-210.13 -199.71,-55.33 -395.27,-86.95 -591.23,-102.76 -195.56,-15.81 -477.25,-23.73 -841.33,-23.73 -77.37,-63.24 -118.57,-146.44 -118.57,-253.37 0,-102.78 41.2,-186.01 118.57,-249.65 454.79,0 1087.23,0 1906.06,0 818.81,0 1364.72,0 1637.65,0l7968.69 0c195.96,0 364.05,-3.75 509.67,-15.81 141.06,-7.92 305,-27.48 486.41,-47.43 182.23,-23.73 309.96,-39.54 377.8,-43.29 73.22,0 109.41,23.73 109.41,71.16 22.46,102.76 113.6,601.63 272.95,1500.37 154.36,898.71 263.8,1576.1 322.45,2035.03 -236.32,111.07 -454.34,146.86 -650.3,114.82 -345.78,-949.89 -632.04,-1587.31 -855.05,-1908.12 -513.84,-661.13 -1250.72,-994 -2210.59,-994l-4253.14 0c-309.14,0 -550.45,99.03 -723.13,292.91 -172.68,198.07 -268.36,447.69 -286.68,744.38 -27.03,578.32 -45.35,1298.97 -54.51,2154.02 -8.74,859.17 -13.73,1571.93 -13.73,2141.94l13.73 867.11 3197.54 0zm-17043.67 5887.47c27.03,1271.1 550.45,1904.38 1560.26,1904.38l1988.02 0c559.21,0 1063.89,-55.35 1519.08,-166.03 450.2,-114.85 832.14,-257.54 1137.14,-435.63 309.14,-178.09 582.1,-407.76 818.84,-684.86 240.91,-281.27 436.45,-562.54 582.07,-847.56 145.23,-284.99 277.12,-613.69 391.13,-985.68 63.67,-7.89 118.17,-12.06 158.93,-15.81 45.77,-4.15 91.14,-4.15 136.89,7.92 40.78,11.64 72.82,19.56 90.72,23.7 18.29,3.75 54.51,19.56 109.01,47.43 50.34,27.9 95.68,47.43 131.9,63.24 -131.9,1037.29 -368.24,2280.51 -704.84,3729.7 -1669.3,0 -2756.08,0 -3252.47,0l-5808.41 0c-277.52,0 -827.58,0 -1646.39,0 -823.43,0 -1455.86,0 -1901.47,0 -76.97,-63.24 -118.17,-146.44 -118.17,-249.23 0,-103.18 41.2,-186.4 118.17,-249.65 541.32,0 937.01,-19.53 1187.05,-55.33 250.07,-35.79 473.51,-126.91 677.78,-277.1 204.72,-150.64 336.62,-360.32 396.12,-629.53 54.51,-269.21 95.29,-657.4 113.58,-1167.92 49.52,-1979.68 76.97,-3662.31 76.97,-5052.4 0,-1440.87 -27.45,-3151.37 -76.97,-5131.06 -18.29,-510.94 -59.07,-902.88 -113.58,-1172.09 -59.5,-265.04 -191.39,-475.14 -396.12,-625.36 -204.28,-150.61 -427.71,-245.48 -677.78,-281.27 -250.04,-35.77 -645.74,-51.58 -1187.05,-51.58 -76.97,-63.24 -118.17,-146.47 -118.17,-249.23 0,-102.78 41.2,-186.01 118.17,-249.65 391.1,0 950.74,0 1678.43,0 727.72,0 1341.86,0 1842.4,0 504.71,0 1127.98,0 1869.43,0 741.45,0 1300.63,0 1673.44,0 82.38,63.64 118.59,146.86 118.59,245.48 0,103.18 -36.21,186.4 -118.59,245.48 -363.65,0 -645.74,7.92 -841.3,23.73 -195.56,16.23 -395.69,51.58 -595.82,106.93 -204.7,55.75 -354.91,122.74 -441.46,210.11 -90.7,83.22 -177.25,209.71 -258.78,376.13 -86.55,166.03 -146.05,360.32 -182.23,585.85 -27.48,209.69 -45.37,487.21 -54.51,835.47 -49.94,1789.55 -77.39,3507.92 -77.39,5151.01 0,728.56 27.45,2399.5 77.39,5020.38zm-33505.3 586.66c-78.63,138.55 -104.45,261.29 -82.8,376.13 21.64,110.68 47.43,205.94 82.8,281.24 34.53,79.05 108.17,146.47 220.93,209.71 112.76,63.24 221.35,110.68 325.8,150.22 99.43,39.94 229.67,67.39 385.69,91.12 156.45,23.7 299.98,43.68 425.65,59.5 129.81,15.81 273.35,23.7 434.39,23.7 73.22,63.24 112.34,146.47 112.34,249.65 0,102.78 -39.12,185.98 -112.34,249.23 -256.3,0 -686.12,0 -1298.15,0 -611.63,0 -1115.1,0 -1514.52,0 -369.06,0 -824.67,0 -1366.81,0 -538.41,0 -942,0 -1211.21,0 -77.81,-67.39 -116.91,-154.36 -116.91,-261.29 0,-106.93 39.09,-193.88 116.91,-261.29 633.68,0 1150.44,-114.85 1545.29,-348.26 390.28,-233.84 746.04,-681.11 1058.51,-1346.43l6041.41 -12998.18c304.15,0 759.76,-158.53 1358.49,-475.14l5442.26 13774.58c95.29,229.27 208.05,427.31 338.68,593.74 129.81,166.42 260.05,292.91 386.14,387.78 129.81,91.12 295,166.45 503.44,225.94 208.05,55.33 381.97,91.12 520.91,106.93 138.57,15.81 338.28,35.37 590.02,59.5 78.21,66.99 117.33,158.11 117.33,269.21 0,114.82 -39.12,201.79 -117.33,272.93 -225.52,0 -707.34,0 -1440.45,0 -733.98,0 -1302.32,0 -1710.5,0 -390.28,0 -1002.31,0 -1839.89,0 -832.96,0 -1358.47,0 -1566.94,0 -78.21,-67.39 -117.33,-158.11 -117.33,-269.18 0,-110.68 39.12,-201.79 117.33,-269.21 829.24,-55.35 1345.59,-114.85 1549.89,-182.23 416.07,-138.57 542.16,-423.57 381.55,-851.3l-1653.91 -4319.27 -5428.93 0c-286.26,0 -494.73,43.26 -616.23,126.49 -121.5,86.95 -221.75,218.03 -299.56,396.09l-1561.95 3678.12zm2950.8 -4960.88l4652.14 0 -2503.53 -6592.28 -78.63 0 -2734.04 6152.51c-60.74,130.63 -30.36,237.58 82.38,317.04 117.35,82.8 308.32,122.74 581.68,122.74zm-9691.21 4022.63c17.47,514.68 56.57,902.46 108.59,1171.67 56.59,265.46 182.23,475.14 377.38,625.78 195.56,150.19 407.76,245.48 647,280.85 238.4,35.77 616.2,51.58 1132.13,51.58 78.66,63.24 113.18,146.47 113.18,249.65 0,102.78 -34.53,185.98 -113.18,249.23 -372.81,0 -906.63,0 -1601.04,0 -694.01,0 -1280.28,0 -1753.34,0 -485.99,0 -1080.55,0 -1788.29,0 -707.34,0 -1240.74,0 -1596.92,0 -73.64,-63.24 -112.74,-146.44 -112.74,-249.23 0,-103.18 39.09,-186.4 112.74,-249.65 516.77,0 894.17,-15.81 1133,-51.58 238.4,-35.37 451.44,-130.66 646.58,-280.85 195.12,-150.64 321.21,-360.32 377.38,-629.53 52,-265.46 91.54,-657.4 108.59,-1167.92 47.43,-1979.68 73.64,-3662.31 73.64,-5052.4 0,-1440.87 -26.21,-3151.37 -73.64,-5131.06 -17.05,-510.94 -56.59,-902.88 -108.59,-1167.92 -56.17,-269.21 -182.26,-479.31 -377.38,-629.53 -195.14,-150.61 -408.18,-245.48 -646.58,-281.27 -238.83,-35.77 -616.23,-51.58 -1133,-51.58 -73.64,-63.24 -112.74,-146.47 -112.74,-249.23 0,-102.78 39.09,-186.01 112.74,-249.65 373.23,0 907.05,0 1601.49,0 694.44,0 1280.26,0 1757.91,0 481.4,0 1076.4,0 1783.72,0 707.32,0 1240.74,0 1596.47,0 78.66,63.64 113.18,146.86 113.18,245.48 0,103.18 -34.53,186.4 -113.18,245.48 -346.99,0 -615.78,7.92 -802.61,23.73 -186.4,16.23 -377.38,51.58 -568.77,106.93 -195.14,55.75 -338.28,122.74 -420.66,210.11 -86.95,83.22 -169.33,209.71 -247.14,376.13 -82.8,166.03 -139.39,364.07 -173.92,589.99 -26.21,205.54 -43.26,486.81 -52,835.07 -47.43,1793.7 -74.07,3512.09 -74.07,5155.18 0,1385.94 26.63,3064.38 74.07,5024.52zm-13730.92 -13050.21c719.83,0 1388.45,55.75 2004.65,166.42 612.06,111.1 1093.88,233.84 1440.87,368.24 347.02,134.8 720.65,257.54 1119.67,368.22 399.42,111.1 768.08,166.42 1106.76,166.42 178.06,791.81 369.06,2011.3 572.94,3658.14 -138.97,91.12 -342.85,138.55 -624.96,138.55 -932.84,-2814.75 -2929.57,-4224.4 -5988.99,-4224.4 -820.5,0 -1614.77,182.23 -2378.7,550.45 -759.32,368.24 -1427.97,867.11 -2000.48,1496.64 -572.94,633.25 -1028.55,1397.58 -1375.54,2300.04 -343.27,899.16 -512.18,1856.94 -512.18,2870.5 0,641.59 95.26,1299 286.26,1971.79 190.97,673.21 486.39,1334.37 881.24,1983.85 399.02,653.23 876.67,1231.16 1427.54,1737.95 546.73,506.77 1215.38,914.52 2000.9,1227.41 785.16,312.89 1623.13,471 2512.68,471 685.7,0 1384.28,-130.66 2096.19,-395.69 711.91,-261.29 1297.73,-589.99 1753.34,-986.11l0 -3800.83c0,-435.21 -151.85,-720.65 -455.61,-847.13 -303.73,-130.66 -863.76,-225.92 -1679.28,-289.16 -78.63,-67.41 -113.16,-170.17 -113.16,-305 0,-134.38 34.53,-233.41 113.16,-304.55 372.81,0 915.37,0 1622.71,0 707.74,0 1241.14,0 1605.63,0 391.1,0 803.03,-7.92 1232.82,-23.73 433.54,-19.98 741.87,-27.87 928.67,-27.87 77.81,71.14 116.93,174.34 116.93,308.72 0,134.83 -39.12,237.58 -116.93,305 -403.59,39.51 -707.32,142.69 -902.46,308.72 -195.56,166.42 -291.25,447.69 -291.25,839.64l0 2969.11c0,245.48 134.8,467.25 408.15,661.55 -932.84,724.4 -1952.63,1274.87 -3051.07,1646.84 -1102.17,372.39 -2391.19,558.37 -3866.58,558.37 -1280.68,0 -2473.57,-201.79 -3572.01,-601.63 -1102.17,-404.01 -2030.86,-946.59 -2786.04,-1627.28 -755.17,-677.38 -1345.59,-1477.06 -1774.99,-2395.75 -425.63,-914.55 -642.41,-1884.42 -642.41,-2902.15 0,-1021.45 164.76,-1979.68 498.87,-2874.22 329.94,-890.82 781.38,-1666.82 1354.32,-2327.94 568.37,-661.57 1232.43,-1231.58 1983.43,-1706.75 750.61,-475.14 1557.8,-835.47 2421.14,-1073.05 863.76,-241.33 1745.03,-360.32 2643.74,-360.32zm-12638.7 13050.21c17.47,514.68 56.59,902.46 108.59,1171.67 56.59,265.46 182.68,475.14 377.8,625.78 195.14,150.19 407.76,245.48 646.58,280.85 238.83,35.77 616.23,51.58 1132.57,51.58 78.63,63.24 113.16,146.47 113.16,249.65 0,102.78 -34.53,185.98 -113.16,249.23 -373.23,0 -906.63,0 -1601.49,0 -694.01,0 -1279.83,0 -1752.92,0 -486.39,0 -1080.97,0 -1788.29,0 -707.32,0 -1241.16,0 -1597.32,0 -73.22,-63.24 -112.34,-146.44 -112.34,-249.23 0,-103.18 39.12,-186.4 112.34,-249.65 516.77,0 894.57,-15.81 1132.97,-51.58 238.43,-35.37 451.44,-130.66 646.58,-280.85 195.56,-150.64 321.21,-360.32 377.8,-629.53 52.02,-265.46 91.12,-657.4 108.59,-1167.92 47.43,-1979.68 73.25,-3662.31 73.25,-5052.4 0,-1440.87 -25.81,-3151.37 -73.25,-5131.06 -17.47,-510.94 -56.57,-902.88 -108.59,-1167.92 -56.59,-269.21 -182.23,-479.31 -377.8,-629.53 -195.14,-150.61 -408.15,-245.48 -646.58,-281.27 -238.4,-35.77 -616.2,-51.58 -1132.97,-51.58 -73.22,-63.24 -112.34,-146.47 -112.34,-249.23 0,-102.78 39.12,-186.01 112.34,-249.65 373.65,0 907.47,0 1601.88,0 694.01,0 1280.28,0 1757.51,0 481.82,0 1076.38,0 1783.72,0 707.74,0 1241.14,0 1596.9,0 78.63,63.64 113.16,146.86 113.16,245.48 0,103.18 -34.53,186.4 -113.16,245.48 -347.02,0 -616.2,7.92 -802.61,23.73 -186.83,16.23 -377.8,51.58 -568.79,106.93 -195.14,55.75 -338.26,122.74 -421.06,210.11 -86.55,83.22 -168.93,209.71 -247.14,376.13 -82.38,166.03 -138.97,364.07 -173.92,589.99 -25.81,205.54 -43.29,486.81 -52.02,835.07 -47.43,1793.7 -73.64,3512.09 -73.64,5155.18 0,1385.94 26.21,3064.38 73.64,5024.52zm-13323.56 -12.06c25.79,1271.1 525.51,1904.38 1488.73,1904.38l1896.88 0c533.4,0 1015.22,-55.35 1449.19,-166.03 429.82,-114.85 793.87,-257.54 1085.14,-435.63 295,-178.09 555.44,-407.76 780.96,-684.86 230.09,-281.27 416.49,-562.54 555.89,-847.56 138.55,-284.99 264.19,-613.69 372.78,-985.68 60.76,-7.89 112.76,-12.06 151.88,-15.81 43.26,-4.15 86.95,-4.15 130.66,7.92 38.7,11.64 69.05,19.56 86.53,23.7 17.47,3.75 52.02,19.56 104.02,47.43 47.85,27.9 91.12,47.43 125.67,63.24 -125.67,1037.29 -351.59,2280.51 -672.4,3729.7 -1592.73,0 -2630.01,0 -3103.07,0l-5542.14 0c-264.61,0 -789.7,0 -1571.11,0 -785.13,0 -1388.85,0 -1814.08,0 -73.64,-63.24 -112.76,-146.44 -112.76,-249.23 0,-103.18 39.12,-186.4 112.76,-249.65 516.77,0 894.14,-19.53 1132.97,-55.33 238.4,-35.79 451.44,-126.91 646.58,-277.1 195.14,-150.64 321.21,-360.32 377.38,-629.53 52.02,-269.21 91.54,-657.4 108.59,-1167.92 47.43,-1979.68 73.67,-3662.31 73.67,-5052.4 0,-1440.87 -26.24,-3151.37 -73.67,-5131.06 -17.05,-510.94 -56.57,-902.88 -108.59,-1172.09 -56.17,-265.04 -182.23,-475.14 -377.38,-625.36 -195.14,-150.61 -408.18,-245.48 -646.58,-281.27 -238.83,-35.77 -616.2,-51.58 -1132.97,-51.58 -73.64,-63.24 -112.76,-146.47 -112.76,-249.23 0,-102.78 39.12,-186.01 112.76,-249.65 373.23,0 907.05,0 1601.46,0 694.44,0 1280.28,0 1757.93,0 481.4,0 1076.38,0 1783.72,0 707.32,0 1240.72,0 1596.47,0 78.63,63.64 113.16,146.86 113.16,245.48 0,103.18 -34.53,186.4 -113.16,245.48 -347.02,0 -615.8,7.92 -802.61,23.73 -186.4,16.23 -377.4,51.58 -568.79,106.93 -195.12,55.75 -338.26,122.74 -420.64,210.11 -86.97,83.22 -169.35,209.71 -247.14,376.13 -82.8,166.03 -139.39,360.32 -173.92,585.85 -26.24,209.69 -43.29,487.21 -52.02,835.47 -47.43,1789.55 -74.07,3507.92 -74.07,5151.01 0,728.56 26.63,2399.5 74.07,5020.38zm82203.98 11391.7c121.92,7.92 200.55,49.94 235.5,126.91 -233.84,210.95 -518.01,374.47 -850.88,493.46 -333.27,117.75 -704.41,177.25 -1113.83,177.25 -782.2,0 -1372.19,-163.52 -1775.8,-492.2 -351.16,-285.02 -527.57,-669.07 -527.57,-1152.95 0,-282.51 70.71,-542.16 209.69,-780.14 139.39,-238.01 321.63,-431.48 545.49,-581.25 223.01,-148.97 469.73,-265.04 738.52,-348.68 266.72,-82.8 537.57,-124.4 809.68,-124.4 302.09,0 568.79,27.05 800.12,82.38 233.41,54.08 419.4,124.4 564.62,212.19 143.12,86.55 258.78,191.82 348.66,314.98 90.72,124.4 153.54,248.8 186.83,370.3 34.95,123.16 52.84,255.48 52.84,396.12 0,40.78 -19.98,74.46 -57.44,100.28 -39.09,27.03 -89.85,40.36 -156.84,40.36l-3152.19 0c0,463.93 119.83,828.82 356.58,1095.09 164.76,186.4 372.39,328.7 625.78,424.41 248.8,96.11 485.97,143.54 711.49,143.54 299.98,0 557.13,-40.78 770.56,-123.16 213.46,-81.14 441.04,-206.78 678.2,-374.47zm-3107.24 -1408.83l2273.86 0c106.51,0 161.43,-33.71 161.43,-101.1 0,-312.47 -104.45,-554.62 -310.41,-727.3 -207.6,-173.1 -456.85,-258.38 -746.86,-258.38 -119.41,0 -240.89,17.47 -368.22,51.18 -125.25,35.37 -258.81,91.94 -396.51,169.33 -136.89,76.99 -262.13,190.57 -371.96,340.37 -111.94,148.95 -192.66,324.53 -241.33,525.9zm-5061.98 -924.5c378.22,-232.6 797.62,-348.68 1258.64,-348.68 515.11,0 976.1,141.88 1379.69,425.65 404.43,283.75 605.83,650.33 605.83,1100.5 0,295.84 -74.07,569.19 -224.7,821.77 -153.52,252.97 -346.99,459.76 -586.66,620.77 -238.83,160.62 -503.86,286.68 -795.95,375.71 -289.98,90.72 -582.07,135.22 -872.5,135.22 -413.17,0 -758.5,-78.63 -1034.78,-233.84 -101.94,-66.15 -206.36,-58.23 -309.96,24.15 -29.96,25.79 -151.03,100.28 -361.17,221.75 -31.2,0 -56.59,-2.48 -78.21,-7.89 -21.22,-5.41 -33.28,-9.58 -39.12,-12.48 -5.83,-2.48 -15.81,-12.06 -29.14,-30.78 -13.73,-19.14 -23.7,-32.47 -31.62,-40.78 3.75,-12.06 19.56,-49.94 49.12,-110.68 27.03,-60.76 53.24,-127.33 70.71,-197.65 19.14,-68.65 31.22,-149.77 34.95,-241.73 12.09,-243.42 19.98,-932.84 23.31,-2067.08 7.92,-1140.86 4.17,-1829.04 -11.22,-2061.64 -12.09,-193.48 -39.54,-328.7 -80.32,-408.18 -39.12,-82.8 -101.94,-138.13 -190.55,-166.42 -88.21,-29.54 -237.16,-43.26 -446.87,-43.26 -62.4,-43.29 -80.72,-96.13 -59.07,-156.87 229.24,-13.3 505.95,-42.02 827.58,-85.28 321.63,-43.29 550.87,-83.65 690.27,-124.43 91.94,0 136.89,25.81 136.89,75.73 -3.75,150.22 -15.81,392.37 -34.95,727.3l-22.07 1776.65c0,34.95 14.15,54.08 39.54,58.25 27.45,3.75 59.07,-5.41 92.36,-25.79zm80.3 163.49c-76.97,51.18 -131.87,98.61 -163.1,143.14 -33.28,44.93 -49.1,105.69 -49.1,182.66 0,1124.66 7.92,1821.15 22.07,2091.6 139.37,118.59 266.7,209.29 386.11,270.05 117.75,62.4 257.14,93.6 413.99,93.6 511.36,0 917.03,-155.6 1213.29,-466.41 297.9,-312.47 444.79,-699 444.79,-1161.27 0,-417.73 -128.99,-757.26 -389.89,-1022.29 -117.75,-121.5 -260.44,-216.36 -425.23,-285.02 -164.76,-66.57 -331.61,-99.03 -500.54,-99.03 -354.49,0 -671.95,84.07 -952.4,252.97zm-5558.74 2169.83c121.89,7.92 200.53,49.94 235.5,126.91 -233.84,210.95 -518.03,374.47 -850.88,493.46 -333.27,117.75 -704.41,177.25 -1113.83,177.25 -782.23,0 -1372.22,-163.52 -1775.8,-492.2 -351.16,-285.02 -527.59,-669.07 -527.59,-1152.95 0,-282.51 70.74,-542.16 209.71,-780.14 139.37,-238.01 321.6,-431.48 545.46,-581.25 223.01,-148.97 469.76,-265.04 738.54,-348.68 266.7,-82.8 537.57,-124.4 809.68,-124.4 302.07,0 568.77,27.05 800.1,82.38 233.44,54.08 419.42,124.4 564.62,212.19 143.14,86.55 258.81,191.82 348.68,314.98 90.7,124.4 153.52,248.8 186.8,370.3 34.95,123.16 52.84,255.48 52.84,396.12 0,40.78 -19.96,74.46 -57.41,100.28 -39.12,27.03 -89.88,40.36 -156.87,40.36l-3152.19 0c0,463.93 119.83,828.82 356.58,1095.09 164.79,186.4 372.39,328.7 625.78,424.41 248.83,96.11 485.99,143.54 711.49,143.54 299.98,0 557.13,-40.78 770.59,-123.16 213.43,-81.14 441.04,-206.78 678.2,-374.47zm-3107.69 -1408.83l2274.28 0c106.51,0 161.43,-33.71 161.43,-101.1 0,-312.47 -104.45,-554.62 -310.38,-727.3 -207.63,-173.1 -456.85,-258.38 -746.86,-258.38 -119.41,0 -240.91,17.47 -368.24,51.18 -125.22,35.37 -258.78,91.94 -396.51,169.33 -136.89,76.99 -262.13,190.57 -371.96,340.37 -111.92,148.95 -192.63,324.53 -241.75,525.9zm-6226.15 1753.34l-23.7 0 -223.86 123.16c-248.38,132.74 -454.34,220.53 -617.02,263.8 -163.12,44.53 -372.39,66.15 -629.53,66.15 -935.35,0 -1401.75,-263.77 -1401.75,-792.21 0,-256.72 168.51,-481.4 505.53,-674.46 333.27,-189.31 780.56,-328.7 1343.5,-415.23l1056.42 -163.52c39.12,-8.34 59.07,-64.91 59.07,-170.2 0,-208.45 -27.87,-388.2 -80.72,-536.72 -54.9,-148.95 -127.31,-260.89 -219.69,-336.59 -89.88,-75.73 -183.9,-129.84 -280,-162.28 -96.13,-34.13 -195.99,-50.34 -300.01,-50.34 -233.41,0 -443.52,32.44 -627.42,97.35 -186.4,64.91 -278.37,154.36 -278.37,267.97 0,70.32 5.41,121.5 21.22,153.94 23.7,31.2 35.79,78.63 35.79,138.13 0,60.76 -49.1,126.91 -147.31,195.99 -97.77,70.32 -221.35,105.27 -370.72,105.27 -128.97,0 -237.16,-29.54 -321.6,-89.03 -84.47,-59.5 -125.25,-135.22 -125.25,-227.18 0,-204.3 202.22,-391.95 605.8,-563.78 403.59,-171.83 837.55,-256.72 1299.82,-256.72 1107.6,0 1639.34,437.71 1597.74,1315.2l-58.68 1149.2c-5.83,163.52 -1.66,290.43 15.81,384.05 17.47,91.94 62.82,166 135.22,223.01 72.4,56.57 178.51,84.86 321.63,84.86 68.65,0 125.25,-10.8 172.26,-33.68 45.35,-21.64 80.3,-43.29 105.69,-64.93 26.21,-21.62 45.35,-31.2 61.16,-31.2 25.39,0 60.74,9.58 101.94,31.2 43.26,21.64 64.48,46.19 64.48,71.58 0,19.14 -39.09,54.08 -119.41,108.17 -78.63,52.84 -196.38,106.93 -353.25,161.04 -156.84,54.08 -317.04,81.11 -481.8,81.11 -435.23,0 -717.74,-151.43 -842.99,-453.1zm56.59 -1347.67l-964.88 163.52c-387.78,64.91 -671.95,174.34 -852.52,324.56 -182.26,150.19 -274.62,312.47 -274.62,486.79 0,137.73 80.3,268.78 239.67,394.45 158.51,126.06 367.79,188.07 629.08,188.07 41.2,0 86.55,-4.17 135.25,-12.06 47.01,-8.31 97.77,-21.64 154.76,-42.02 54.93,-18.74 104.02,-37.88 145.23,-55.35 42.84,-16.23 94.02,-42.02 156.84,-76.97l143.14 -71.56c29.54,-14.99 78.21,-42.02 143.14,-78.66l131.48 -75.7c99.85,-49.94 152.7,-116.09 156.84,-197.23l56.59 -947.83zm-4515.25 847.56c3.75,116.51 9.58,212.19 15.81,284.17 7.92,72.82 27.05,137.73 58.25,193.06 29.54,57.01 61.16,98.61 89.03,125.67 28.72,27.03 79.9,50.34 154.39,70.32 74.88,19.14 147.29,31.2 215.94,36.61 68.23,5.41 174.32,8.31 315.8,8.31 34.95,21.64 52.42,49.94 52.42,84.89 0,35.37 -17.47,63.67 -52.42,85.28 -149.37,0 -353.25,0 -613.72,0 -260.87,0 -478.47,0 -654.9,0 -180.15,0 -404.01,0 -672.79,0 -268.36,0 -472.24,0 -613.72,0 -34.95,-22.88 -52.84,-54.08 -52.84,-91.94 0,-39.12 17.9,-69.08 52.84,-93.2 141.48,-8.34 245.08,-14.99 312.07,-21.64 66.57,-6.65 138.97,-19.14 215.52,-39.12 76.55,-20.38 129.81,-43.26 158.53,-69.05 27.87,-25.81 57.41,-67.84 86.55,-124.43 27.45,-55.33 47.01,-120.23 56.57,-191.79 10.4,-73.25 15.81,-167.69 19.98,-285.44 15.39,-320.39 23.31,-620.37 23.31,-901.64 0,-144.78 -7.92,-377.38 -23.31,-696.1 -7.92,-124.4 -19.98,-216.34 -33.28,-280 -15.81,-63.67 -54.93,-113.58 -117.75,-153.96 -64.48,-39.51 -137.31,-64.91 -219.69,-78.63 -82.38,-13.3 -213.46,-24.13 -391.95,-34.95 -31.62,-63.67 -39.51,-111.1 -23.7,-146.05 696.5,-59.5 1217.83,-138.13 1562.77,-231.33 101.94,0 154.36,33.71 154.36,102.76 -31.2,286.68 -56.59,562.54 -74.07,827.58 -15.81,215.94 -23.7,461.02 -23.7,733.98 0,93.2 3.75,262.11 11.64,505.53 7.92,243.39 12.06,370.3 12.06,381.12zm-1011.89 -3988.08c0,-94.44 66.99,-183.9 202.22,-265.04 133.14,-82.38 270.45,-122.74 414.01,-122.74 152.7,0 284.17,44.5 395.67,132.29 109.86,87.79 166.45,183.92 166.45,286.68 0,90.72 -62.85,177.25 -188.07,263.8 -123.58,84.89 -265.06,128.15 -421.08,128.15 -141.45,0 -272.93,-44.53 -390.68,-132.32 -119.41,-87.79 -178.51,-185.14 -178.51,-290.83zm-1762.5 1866.92c-53.24,0 -111.5,-14.54 -174.32,-43.26 -62.85,-29.54 -105.69,-62 -129.42,-95.71 -60.74,-63.64 -135.62,-96.11 -223.83,-96.11 -70.32,0 -152.3,20.4 -250.89,62 -97.79,40.78 -166.45,82.8 -209.29,126.06 168.51,121.5 289.58,240.49 362.81,359.48 72.4,119.02 107.35,266.3 107.35,443.55 0,360.75 -182.23,652.81 -550.87,874.59 -366.58,221.77 -810.1,332.45 -1326.87,332.45 -362.83,0 -702.33,-62 -1015.64,-186.4 -164.76,162.28 -247.56,312.05 -247.56,448.54 0,133.96 80.3,247.56 243.39,342.43 162.7,94.44 332.87,141.88 509.7,141.88 7.92,0 121.5,0 342.85,0 300.41,-32.44 550.9,-47.43 753.09,-47.43 785.98,0 1331.04,86.55 1636.86,260.89 329.52,188.07 494.28,405.67 494.28,652.81 0,200.13 -92.36,390.7 -278.34,569.19 -186.4,179.75 -429.4,329.94 -729.38,451.86 -299.98,121.5 -639.09,217.6 -1013.56,286.26 -374.05,70.32 -753.09,105.69 -1131.31,105.69 -306.24,0 -592.08,-31.22 -852.97,-94.87 -262.11,-63.24 -485.97,-170.17 -672.79,-318.72 -185.56,-148.95 -277.92,-329.94 -277.92,-543.8 0,-174.34 84.44,-355.33 254.64,-544.64 170.59,-190.57 399.84,-346.18 686.52,-467.67 -182.23,-42.02 -335.35,-113.58 -453.1,-215.12 -119.41,-102.76 -178.51,-229.67 -178.51,-382.36 0,-281.27 203.88,-540.89 609.97,-781.38 -176,-119.02 -313.71,-246.32 -407.76,-379.88 -96.11,-135.22 -144.78,-297.5 -144.78,-488.05 0,-346.18 185.56,-628.69 554.2,-849.22 370.72,-218.84 814.27,-328.28 1329.38,-328.28 472.66,0 858.77,72.82 1160.84,218.84 133.56,-121.47 313.71,-217.6 540.89,-286.66 225.52,-69.08 421.48,-102.78 589.99,-102.78 148.95,0 272.95,27.05 371.15,81.14 97.77,54.08 146.44,123.16 146.44,204.3 0,76.97 -44.93,144.36 -130.63,202.61 -89.03,58.25 -186.4,87.79 -294.6,87.79zm-3491.69 3074.38c-260.89,213.46 -389.86,481.4 -389.86,803.03 0,258.38 135.22,474.33 407.76,647.43 270.45,174.34 597.88,260.87 981.94,260.87 523.42,0 1008.15,-99.85 1452.94,-298.74 442.7,-198.47 666.54,-431.04 666.54,-697.34 0,-223.01 -194.3,-408.15 -580.41,-557.13 -148.95,-55.33 -317.46,-91.94 -505.53,-108.17 -188.49,-17.47 -443.55,-25.79 -764.75,-25.79 -33.71,0 -145.2,0 -335.35,0 -190.15,0 -351.16,0 -486.39,0 -182.26,0 -332.87,-7.92 -446.87,-24.15zm2131.14 -2240.15c0,-324.53 -99.85,-581.25 -299.98,-770.56 -198.07,-188.07 -472.66,-282.51 -819.26,-282.51 -304.15,0 -535.48,76.97 -698.18,231.33 -162.25,153.96 -245.06,369.06 -245.06,643.26 0,747.68 362.41,1120.91 1085.96,1120.91 109.83,0 219.69,-16.23 327.86,-47.43 105.69,-32.44 211.8,-82.38 311.23,-150.19 101.94,-68.65 184.74,-167.69 245.48,-295.84 60.34,-127.33 91.96,-277.1 91.96,-448.96zm-6601.44 -1053.07c-241.33,0 -450.62,42.02 -629.11,128.57 -176.85,86.53 -313.73,202.61 -409.84,348.66 -96.11,146.05 -166.42,299.98 -210.13,462.26 -42.84,161.01 -66.15,332.45 -66.15,515.11 0,161.01 31.2,331.18 91.54,512.6 61.16,180.99 153.54,359.5 277.1,533.82 121.08,174.34 292.09,319.15 511.78,433.97 217.18,114.85 464.35,171.83 738.54,171.83 143.54,0 286.66,-23.28 431.46,-69.05 145.2,-46.19 288.34,-117.75 425.23,-213.88 137.73,-96.93 249.23,-233.81 335.35,-410.66 86.55,-177.25 129.39,-379.88 129.39,-609.97 0,-552.96 -148.95,-990.67 -446.43,-1316.45 -300.83,-324.53 -692.35,-486.81 -1178.74,-486.81zm-2211.46 1633.08c0,-517.59 207.63,-943.66 621.61,-1276.09 447.3,-362.41 1033.12,-543.4 1756.69,-543.4 329.1,0 629.08,34.95 902.04,105.27 272.11,69.08 495.97,162.28 668.65,277.1 174.32,114.85 320.78,248.83 442.7,401.53 121.08,154.36 205.54,310.81 258.78,470.58 50.76,159.35 76.57,322.87 76.57,489.29 0,248.83 -59.1,486.81 -176.85,714 -123.56,226.76 -307.48,421.48 -552.54,585 -431.48,290.83 -980.69,436.87 -1643.09,436.87 -378.22,0 -721.47,-48.67 -1029.37,-146.05 -309.57,-98.59 -557.13,-228.43 -744.77,-389.44 -188.07,-160.59 -331.61,-337.86 -431.48,-531.31 -98.19,-191.82 -148.95,-390.7 -148.95,-593.34zm-2354.15 750.18c21.64,-682.77 32.89,-1365.14 32.89,-2047.91 0,-888.31 -11.24,-1487.06 -32.89,-1796.6 -7.89,-101.54 -17.9,-182.66 -27.87,-244.66 -7.89,-62.42 -25.37,-117.75 -47.01,-166.42 -23.73,-48.7 -49.1,-85.31 -76.15,-109.43 -25.79,-24.55 -68.65,-44.95 -127.73,-61.16 -60.34,-17.47 -119.83,-28.3 -178.09,-33.71 -61.16,-5.41 -145.62,-7.92 -257.12,-7.92 -49.1,-35.34 -62.85,-86.53 -39.12,-156.84 229.24,-13.73 503.86,-42.02 823.41,-84.04 319.15,-43.29 549.23,-83.65 686.12,-124.43 100.28,0 151.03,25.81 151.03,75.73 -19.56,138.15 -34.95,379.88 -47.01,730.23 -19.56,686.94 -29.96,1417.96 -29.96,2192.69 0,686.94 10.4,1299.42 29.96,1836.14 4.15,116.09 9.56,206.81 17.47,272.95 7.47,69.08 25.79,129.81 54.9,183.9 27.48,54.11 57.01,94.47 82.38,119.02 27.48,25.37 76.57,47.01 148.97,66.15 72.38,17.47 143.12,29.54 207.6,33.71 64.91,4.15 164.79,5.41 298.35,5.41 35.37,21.62 52.84,49.91 52.84,85.28 0,34.95 -17.47,63.24 -52.84,84.89 -136.89,0 -335.78,0 -593.74,0 -258.81,0 -476.83,0 -652.84,0 -175.16,0 -392.34,0 -649.49,0 -254.64,0 -450.62,0 -584.18,0 -35.34,-21.64 -52.84,-49.94 -52.84,-84.89 0,-35.37 17.5,-63.67 52.84,-85.28 133.56,0 233.84,-1.27 298.35,-5.41 64.48,-4.17 133.14,-16.23 205.54,-33.71 72.38,-19.14 123.98,-40.78 151.03,-66.15 25.37,-24.55 52.84,-64.91 82.78,-119.02 28.72,-54.08 47.04,-114.82 54.51,-183.9 7.92,-69.08 13.33,-161.01 17.9,-274.62zm-4080.44 -2383.27c-241.33,0 -450.62,42.02 -629.11,128.57 -176.82,86.53 -314.13,202.61 -409.84,348.66 -96.11,146.05 -166.42,299.98 -210.11,462.26 -42.87,161.01 -66.15,332.45 -66.15,515.11 0,161.01 31.2,331.18 91.51,512.6 61.18,180.99 153.12,359.5 277.12,533.82 121.08,174.34 292.07,319.15 511.76,433.97 217.21,114.85 464.35,171.83 738.54,171.83 143.54,0 286.26,-23.28 431.46,-69.05 145.23,-46.19 288.34,-117.75 425.23,-213.88 137.73,-96.93 249.25,-233.81 335.35,-410.66 86.55,-177.25 129.42,-379.88 129.42,-609.97 0,-552.96 -149.37,-990.67 -446.87,-1316.45 -300.41,-324.53 -691.93,-486.81 -1178.32,-486.81zm-2211.43 1633.08c0,-517.59 207.6,-943.66 621.61,-1276.09 446.85,-362.41 1033.12,-543.4 1756.25,-543.4 329.55,0 629.53,34.95 902.46,105.27 272.14,69.08 495.97,162.28 668.23,277.1 174.34,114.85 321.21,248.83 443.13,401.53 121.08,154.36 205.54,310.81 258.81,470.58 50.76,159.35 76.55,322.87 76.55,489.29 0,248.83 -59.07,486.81 -176.82,714 -123.58,226.76 -307.48,421.48 -552.56,585 -431.46,290.83 -980.69,436.87 -1643.09,436.87 -378.19,0 -721.89,-48.67 -1029.37,-146.05 -309.54,-98.59 -557.13,-228.43 -744.77,-389.44 -188.07,-160.59 -331.61,-337.86 -431.46,-531.31 -98.19,-191.82 -148.95,-390.7 -148.95,-593.34zm-2458.6 1192.49c-298.32,163.49 -552.96,282.51 -766.42,356.97 -211.77,74.07 -421.9,110.68 -629.51,110.68 -592.08,0 -1058.93,-152.7 -1398.03,-459.76 -339.1,-306.64 -507.61,-704.41 -507.61,-1193.71 0,-545.91 258.38,-997.77 774.33,-1354.35 237.16,-155.6 490.14,-273.35 754.75,-352.83 266.7,-79.87 576.26,-118.99 929.51,-118.99 105.27,0 229.24,12.06 370.3,34.95 139.39,24.55 258.81,47.43 359.08,70.32 97.77,22.88 152.7,33.71 160.59,33.71 72.4,0 107.77,-25.39 107.77,-75.73 0,-623.28 -7.92,-1070.57 -21.64,-1339.75 -7.89,-126.91 -19.14,-225.52 -34.95,-297.08 -15.81,-71.98 -33.71,-131.48 -51.18,-178.51 -19.56,-47.43 -56.99,-81.14 -111.92,-100.28 -56.59,-17.47 -109.83,-29.54 -158.53,-34.95 -49.1,-5.41 -133.56,-8.31 -252.97,-8.31 -44.93,-5.41 -82.38,-7.92 -109.83,-7.92 -64.91,-44.5 -88.64,-96.11 -68.65,-154.36 229.24,-13.3 503.86,-40.36 821.32,-82.38 317.88,-43.26 547.15,-83.62 684.04,-123.16 92.36,0 137.73,25.81 137.73,75.73 -12.09,150.22 -27.9,393.61 -45.37,728.96 -11.22,202.64 -17.47,858.38 -17.47,1968.46 0,1108.42 6.25,1764.16 17.47,1968.04 12.09,203.03 64.51,343.67 163.12,421.88 97.77,76.99 317.46,125.67 658.22,144.8 60.74,41.6 60.74,82.38 0,122.74 -574.6,47.43 -1005.24,151.46 -1293.59,312.47 -82.8,16.23 -155.18,16.23 -211.77,0 -76.97,-182.66 -116.09,-335.35 -116.09,-459.76 0,-18.71 -5.41,-29.54 -21.22,-33.71 -15.39,-4.15 -35.37,-2.48 -59.07,2.93 -21.64,4.99 -42.87,13.3 -62.42,22.88zm133.14 -489.32l21.64 -1631.84c0,-117.75 -9.58,-201.37 -33.28,-251.73 -23.31,-48.67 -74.49,-104.02 -154.78,-167.27 -233.41,-185.56 -549.21,-277.52 -943.24,-277.52 -486.39,0 -852.54,129.81 -1101.77,388.2 -92.36,89.06 -170.59,231.35 -235.5,423.17 -66.15,193.45 -97.77,420.22 -97.77,681.53 0,453.92 135.22,819.24 408.15,1094.7 270.05,275.83 572.12,413.99 901.22,413.99 294.6,0 647,-124.4 1056.84,-371.96 72.8,-47.43 119.83,-90.72 141.06,-129.84 19.96,-37.85 33.68,-94.44 37.43,-171.41zm-6916.84 -2336.26c-241.31,0 -450.6,42.02 -629.11,128.57 -176.82,86.53 -314.13,202.61 -409.82,348.66 -96.13,146.05 -166.42,299.98 -210.13,462.26 -42.84,161.01 -66.15,332.45 -66.15,515.11 0,161.01 31.2,331.18 91.54,512.6 61.16,180.99 153.12,359.5 277.1,533.82 121.08,174.34 292.09,319.15 511.78,433.97 217.18,114.85 464.35,171.83 738.54,171.83 143.54,0 286.26,-23.28 431.46,-69.05 145.2,-46.19 288.34,-117.75 425.23,-213.88 137.71,-96.93 249.23,-233.81 335.35,-410.66 86.55,-177.25 129.39,-379.88 129.39,-609.97 0,-552.96 -149.37,-990.67 -446.85,-1316.45 -300.41,-324.53 -691.93,-486.81 -1178.34,-486.81zm-2211.43 1633.08c0,-517.59 207.63,-943.66 621.61,-1276.09 446.87,-362.41 1033.12,-543.4 1756.27,-543.4 329.52,0 629.51,34.95 902.04,105.27 272.53,69.08 496.39,162.28 668.65,277.1 174.32,114.85 321.21,248.83 443.1,401.53 121.08,154.36 205.54,310.81 258.81,470.58 50.76,159.35 76.57,322.87 76.57,489.29 0,248.83 -59.1,486.81 -176.85,714 -123.56,226.76 -307.48,421.48 -552.54,585 -431.48,290.83 -980.69,436.87 -1643.09,436.87 -378.22,0 -721.89,-48.67 -1029.37,-146.05 -309.57,-98.59 -557.13,-228.43 -744.77,-389.44 -188.07,-160.59 -331.61,-337.86 -431.48,-531.31 -98.19,-191.82 -148.95,-390.7 -148.95,-593.34zm-4468.22 -3152.59c-15.41,896.23 -23.31,1603.13 -23.31,2122.4l0 39.09c171.83,25.81 481.82,39.54 930.76,39.54 1189.98,0 1786.2,-423.15 1786.2,-1268.19 0,-244.66 -47.01,-456.85 -141.03,-635.36 -94.47,-179.73 -221.77,-316.61 -384.47,-411.08 -163.1,-94.44 -337.44,-164.76 -519.67,-208.02 -183.9,-43.29 -386.11,-64.91 -603.72,-64.91 -394.03,0 -664.48,32.44 -813.43,97.35 -147.29,63.24 -223.44,160.62 -231.33,289.19zm-23.31 2323.77c0,328.7 7.89,900.4 23.31,1717.15 0,79.45 9.56,147.29 31.62,202.61 20.8,55.35 56.57,102.78 108.99,140.63 51.18,39.12 104.45,70.32 161.04,93.2 54.93,24.55 135.22,43.29 241.31,58.25 104.02,14.99 203.48,25.79 295.84,32.47 90.7,6.65 215.94,9.56 372.81,9.56 34.95,21.64 50.76,49.94 50.76,84.89 0,35.37 -15.81,63.67 -50.76,85.28 -153.12,0 -407.76,0 -766.84,0 -358.24,0 -660.73,0 -905.79,0 -217.6,0 -486.39,0 -805.53,0 -319.54,0 -560.85,0 -721.47,0 -33.28,-21.62 -51.18,-49.91 -51.18,-85.28 0,-34.95 17.9,-63.24 51.18,-84.89 156.87,0 276.28,-2.9 358.24,-8.31 82.8,-5.41 168.93,-17.47 258.81,-34.95 90.7,-19.14 153.52,-42.02 190.97,-70.32 34.95,-27.05 72.4,-70.32 107.35,-127.33 37.45,-56.59 60.74,-122.74 72.4,-200.13 12.06,-74.07 19.96,-170.17 23.31,-289.16 15.81,-462.26 22.04,-1036.86 22.04,-1722.14 0,-266.28 -6.23,-850.46 -22.04,-1749.59 -3.35,-116.09 -11.24,-212.19 -19.16,-287.92 -9.56,-75.73 -33.28,-140.63 -66.57,-198.89 -35.34,-56.59 -72.8,-98.61 -111.92,-128.15 -41.18,-28.3 -105.69,-52.84 -191.82,-71.56 -88.21,-17.9 -174.74,-29.96 -259.2,-35.37 -84.47,-5.41 -205.54,-7.92 -362.41,-7.92 -33.28,-21.62 -51.18,-50.34 -51.18,-85.28 0,-35.37 17.9,-63.67 51.18,-85.31 168.09,0 409.42,0 721.47,0 311.65,0 572.12,0 783.89,0 172.68,0 461.02,-9.56 864.61,-28.27 403.59,-18.74 649.49,-28.3 737.28,-28.3 413.59,0 782.23,32.44 1103.86,98.61 321.63,66.15 574.18,147.29 756.44,243.39 184.72,96.11 335.75,208.05 451.44,337.86 117.75,129.81 196.38,248.8 234.66,359.48 41.6,111.1 61.16,220.53 61.16,328.7 0,147.29 -25.37,292.09 -76.13,432.73 -53.27,140.63 -145.23,283.75 -277.12,428.56 -130.63,146.05 -297.9,271.69 -499.3,379.86 -200.53,108.19 -464.74,195.99 -792.21,265.06 -327.44,68.65 -696.07,102.34 -1105.49,102.34 -445.63,0 -778.48,-24.13 -999.83,-71.56zm97210.99 -121.5c-9.58,-209.69 -58.25,-343.25 -144.8,-405.67 -86.13,-60.74 -280.43,-101.52 -584.58,-123.16 -36.61,-41.6 -44.53,-87.79 -21.22,-137.71 542.98,-51.18 1003.58,-124.43 1383.86,-218.87 80.72,0 127.75,16.23 143.56,47.01 23.28,48.7 34.95,230.09 34.95,545.06 0,66.17 15.81,101.12 51.18,102.78 11.64,0 27.03,-8.34 44.5,-27.05 421.9,-433.97 837.58,-651.57 1247.39,-651.57 245.08,0 419.4,37.85 523.02,114.85 102.34,76.97 155.18,163.52 155.18,257.96 0,96.11 -54.93,178.49 -160.59,250.04 -107.77,71.98 -229.69,108.19 -368.66,108.19 -25.37,0 -54.9,-2.51 -82.38,-7.92 -29.11,-5.41 -54.9,-10.8 -74.46,-16.21 -21.64,-5.41 -45.35,-14.99 -68.65,-29.96 -25.39,-14.57 -45.35,-25.39 -58.68,-32.47 -13.73,-5.41 -31.2,-19.98 -57.41,-40.36 -24.97,-21.64 -40.78,-35.37 -44.53,-40.78 -5.81,-4.99 -23.31,-19.96 -49.52,-47.01l-34.95 -35.37c-52.84,-49.91 -131.48,-75.73 -235.08,-75.73 -100.28,0 -268.78,138.15 -505.95,414.01 -164.76,199.71 -255.06,385.27 -270.87,555.44 -25.37,337.86 -25.37,731.47 0,1177.5 7.92,113.6 15.81,202.64 23.73,270.45 7.89,66.17 27.45,126.91 60.74,182.26 31.62,55.75 62.82,94.87 92.38,118.99 27.03,23.31 84.47,44.93 168.51,64.91 84.47,19.14 162.68,31.2 233.41,36.61 70.74,5.41 183.9,12.06 340.76,20.38 35.79,22.88 53.27,52.84 53.27,87.79 0,36.64 -17.47,64.93 -53.27,89.06 -136.89,0 -350.35,0 -639.09,0 -290.01,0 -519.28,0 -687.78,0 -161.01,0 -372.81,0 -637,0 -265.04,0 -464.77,0 -602.48,0 -34.95,-21.64 -52.84,-48.28 -52.84,-80.72 0,-32.47 17.9,-59.5 52.84,-81.14 133.56,0 233.84,-2.9 299.98,-8.31 69.08,-5.41 137.73,-17.47 210.11,-34.95 72.4,-19.16 123.58,-42.05 152.7,-67.84 29.56,-27.03 57.44,-67.39 86.13,-121.5 29.56,-54.08 47.04,-116.48 54.93,-185.14 7.92,-67.84 15.81,-159.77 21.64,-273.38 31.62,-563.78 31.62,-1131.31 0,-1700.5zm-3134.72 2157.35l-23.31 0 -223.83 123.16c-248.83,132.74 -454.37,220.53 -617.47,263.8 -162.68,44.53 -371.96,66.15 -629.11,66.15 -935.32,0 -1401.75,-263.77 -1401.75,-792.21 0,-256.72 168.51,-481.4 505.53,-674.46 333.29,-189.31 780.14,-328.7 1343.1,-415.23l1056.82 -163.52c39.12,-8.34 59.1,-64.91 59.1,-170.2 0,-208.45 -27.87,-388.2 -81.14,-536.72 -54.51,-148.95 -127.33,-260.89 -219.27,-336.59 -89.88,-75.73 -184.32,-129.84 -280.03,-162.28 -96.11,-34.13 -196.38,-50.34 -299.98,-50.34 -233.41,0 -443.55,32.44 -627.45,97.35 -186.4,64.91 -278.37,154.36 -278.37,267.97 0,70.32 5.41,121.5 21.22,153.94 23.31,31.2 35.37,78.63 35.37,138.13 0,60.76 -48.67,126.91 -146.86,195.99 -97.77,70.32 -221.77,105.27 -370.72,105.27 -128.99,0 -237.16,-29.54 -321.63,-89.03 -84.47,-59.5 -125.25,-135.22 -125.25,-227.18 0,-204.3 201.79,-391.95 605.8,-563.78 403.61,-171.83 837.58,-256.72 1299.42,-256.72 1108,0 1639.74,437.71 1598.14,1315.2l-58.65 1149.2c-6.25,163.52 -1.69,290.43 15.81,384.05 17.47,91.94 62.4,166 134.8,223.01 72.4,56.57 178.91,84.86 321.63,84.86 69.05,0 125.64,-10.8 172.65,-33.68 45.37,-21.64 80.32,-43.29 105.69,-64.93 25.81,-21.62 45.35,-31.2 60.76,-31.2 25.37,0 61.16,9.58 102.34,31.2 43.29,21.64 64.51,46.19 64.51,71.58 0,19.14 -39.54,54.08 -119.41,108.17 -78.66,52.84 -196.41,106.93 -353.25,161.04 -156.87,54.08 -317.48,81.11 -482.24,81.11 -434.79,0 -717.3,-151.43 -842.96,-453.1zm57.01 -1347.67l-964.88 163.52c-388.2,64.91 -672.37,174.34 -852.54,324.56 -182.23,150.19 -274.62,312.47 -274.62,486.79 0,137.73 80.32,268.78 239.67,394.45 158.53,126.06 367.82,188.07 629.11,188.07 41.18,0 86.55,-4.17 135.22,-12.06 47.01,-8.31 97.77,-21.64 154.36,-42.02 54.93,-18.74 104.45,-37.88 145.62,-55.35 42.87,-16.23 94.05,-42.02 156.87,-76.97l143.12 -71.56c29.56,-14.99 78.24,-42.02 142.72,-78.66l131.48 -75.7c100.28,-49.94 152.7,-116.09 156.87,-197.23l57.01 -947.83zm-6422.56 -1597.71l517.61 0c0,-254.24 -1.66,-461.02 -7.92,-622.03 -5.81,-161.01 -12.06,-271.69 -17.47,-332.45 -5.81,-61.16 -10.4,-96.11 -10.4,-106.93 0,-24.55 18.32,-43.26 49.52,-58.25 33.28,-13.3 89.88,-29.54 170.17,-47.01 80.3,-16.23 137.73,-31.2 172.68,-40.78 45.35,-13.3 100.28,-32.44 166.42,-56.59l167.27 -58.25c44.53,-16.21 80.3,-24.55 101.52,-24.55 54.93,0 80.72,31.22 80.72,94.87 -21.64,194.74 -37.45,461.02 -45.35,798.88l-12.06 453.1 1349.33 0c58.65,0 86.13,17.47 86.13,51.18l0 86.53c0,31.22 -27.48,55.35 -86.13,71.58 -56.59,17.47 -119.41,25.79 -188.49,25.79l-1160.84 0c-64.48,1009.81 -86.13,1710.08 -62.82,2100.76 15.81,265.04 47.43,450.2 94.44,555.89 49.52,105.27 143.54,158.11 284.6,158.11 144.78,0 311.23,-25.81 498.03,-77.39 183.92,-51.18 352.83,-117.33 501.8,-195.99 37.03,8.34 64.48,19.16 80.3,31.22 15.81,13.73 29.54,40.76 39.12,79.87 -213.46,166.03 -454.77,293.33 -723.55,379.88 -266.72,87.79 -533.42,131.05 -798.04,131.05 -264.22,0 -460.6,-60.74 -592.08,-182.66 -128.99,-121.5 -193.48,-317.46 -193.48,-586.66 0,-137.71 9.58,-500.11 27.05,-1089.68 19.96,-589.17 29.54,-1024.8 29.54,-1304.41l-654.5 0c-43.68,0 -62.82,-17.47 -62.82,-51.6l0 -70.32c0,-75.31 66.15,-113.16 199.71,-113.16zm-4404.97 2296.72c77.79,-52.82 152.7,-55.33 225.1,-8.31 121.89,343.69 286.66,584.18 494.28,721.89 72.4,50.36 183.92,97.37 339.1,142.3 153.12,44.53 324.95,67.41 521.34,67.41 229.69,0 453.13,-59.5 666.56,-178.49 213.86,-119.02 321.63,-266.3 321.63,-443.55 0,-168.93 -82.38,-309.57 -246.74,-420.24 -156.84,-105.27 -466.83,-225.92 -931.57,-361.14 -454.77,-132.32 -774.33,-268.78 -958.65,-409.42 -184.32,-141.88 -276.68,-348.68 -276.68,-620.37 0,-243.42 158.93,-448.96 475.14,-616.62 315.4,-167.69 686.12,-251.31 1111.35,-251.31 172.68,0 348.66,9.16 530.92,28.3 182.23,17.47 366.98,42.02 555.04,70.32 188.46,29.54 311.63,47.43 372.39,55.33 -3.75,60.76 -13.73,179.75 -31.22,358.24 -17.47,177.27 -25.37,316.22 -25.37,420.66 -35.79,22.88 -76.57,36.19 -123.58,39.12 -47.43,2.48 -88.21,-8.34 -123.16,-31.22 -112.34,-508.43 -495.94,-762.64 -1155.01,-762.64 -198.05,0 -388.62,56.99 -564.62,171.83 -178.91,114.82 -268.78,250.04 -268.78,402.77 0,190.97 94.05,338.26 282.51,443.52 180.6,101.52 474.33,205.54 884.17,313.73 425.23,113.58 751.03,245.9 976.1,396.09 225.52,151.46 339.1,348.68 339.1,594.98 0,179.75 -62.82,336.62 -185.98,471.84 -125.22,133.56 -284.17,236.32 -476.39,306.64 -194.32,70.32 -386.14,120.26 -574.6,152.7 -190.15,31.22 -372.39,47.43 -549.23,47.43 -364.47,0 -705.23,-29.96 -1023.11,-87.79 -52.45,-9.56 -127.33,-14.97 -223.44,-14.97 -76.57,0 -172.68,8.31 -286.68,22.88 0,-299.98 -22.88,-640.75 -69.9,-1021.9zm-1204.55 304.15c121.92,7.92 200.55,49.94 235.5,126.91 -233.41,210.95 -517.59,374.47 -850.86,493.46 -332.87,117.75 -704.02,177.25 -1113.83,177.25 -781.81,0 -1372.22,-163.52 -1775.83,-492.2 -351.16,-285.02 -527.17,-669.07 -527.17,-1152.95 0,-282.51 70.32,-542.16 209.29,-780.14 139.39,-238.01 321.63,-431.48 545.49,-581.25 223.01,-148.97 470.16,-265.04 738.52,-348.68 266.72,-82.8 537.59,-124.4 809.7,-124.4 302.47,0 569.19,27.05 800.1,82.38 233.41,54.08 419.4,124.4 565.05,212.19 142.69,86.55 258.78,191.82 348.66,314.98 90.3,124.4 153.12,248.8 186.4,370.3 34.95,123.16 53.27,255.48 53.27,396.12 0,40.78 -19.98,74.46 -57.44,100.28 -39.51,27.03 -89.85,40.36 -156.84,40.36l-3152.19 0c0,463.93 119.41,828.82 356.58,1095.09 164.76,186.4 372.39,328.7 625.78,424.41 248.38,96.11 485.54,143.54 711.49,143.54 299.56,0 556.71,-40.78 770.14,-123.16 213.88,-81.14 441.46,-206.78 678.2,-374.47zm-3107.24 -1408.83l2274.26 0c106.11,0 161.04,-33.71 161.04,-101.1 0,-312.47 -104.45,-554.62 -309.99,-727.3 -207.63,-173.1 -456.85,-258.38 -747.26,-258.38 -119.41,0 -240.49,17.47 -367.82,51.18 -125.67,35.37 -259.2,91.94 -396.51,169.33 -136.89,76.99 -262.55,190.57 -372.39,340.37 -111.52,148.95 -192.66,324.53 -241.33,525.9zm-11230.69 -412.32c-115.27,78.63 -177.67,188.07 -189.73,324.53 -25.39,456.85 -25.39,914.13 0,1370.98 7.47,113.58 15.39,203.88 21.62,270.45 5.83,67.41 19.14,128.15 45.35,182.23 24.97,54.08 48.7,93.2 67.84,118.99 22.04,25.81 61.16,47.43 121.89,67.84 58.68,19.98 116.09,32.44 168.53,37.85 54.9,5.41 137.71,10.82 247.56,18.74 34.95,24.55 52.42,55.33 52.42,93.2 0,37.85 -17.47,69.05 -52.42,93.2 -145.62,0 -323.71,-2.51 -537.99,-7.92 -211.8,-5.41 -394.03,-8.31 -548.39,-8.31 -174.76,0 -384.45,0 -627.45,0 -243,0 -431.46,0 -560.45,0 -35.77,-21.64 -51.58,-49.94 -51.58,-84.89 0,-35.37 15.81,-63.67 51.58,-85.28 119.41,0 207.63,-2.51 270.03,-9.58 61.18,-6.65 124,-18.71 188.49,-37.85 66.15,-18.74 113.58,-40.36 141.06,-67.41 29.54,-25.79 56.99,-66.15 84.47,-118.99 25.37,-52.84 44.93,-113.6 52.42,-183.92 10.4,-70.32 19.98,-161.01 27.87,-271.69 29.54,-563.78 29.54,-1127.56 0,-1691.34 -7.89,-118.99 -21.64,-208.05 -37.45,-267.54 -17.47,-59.5 -56.57,-108.17 -115.66,-148.53 -58.65,-39.54 -127.31,-64.91 -205.96,-77.39 -78.21,-12.06 -201.37,-22.88 -370.3,-33.71 -31.62,-63.67 -39.09,-109.43 -23.7,-139.39 659.07,-60.74 1156.67,-132.29 1494.11,-217.6 94.05,0 143.14,17.9 143.14,52.84 -39.54,240.49 -57.01,439.38 -57.01,594.98 0,19.98 2.08,34.95 7.92,43.29 6.23,7.89 14.15,10.82 23.7,7.89 9.58,-2.48 17.47,-5.41 25.39,-9.56 7.89,-3.75 17.47,-12.06 31.2,-21.64 13.73,-10.82 21.64,-17.47 25.39,-19.98 586.66,-423.15 1180.4,-635.34 1780.79,-635.34 284.17,0 524.66,54.08 725.21,160.62 197.65,106.93 324.95,242.15 378.22,405.67 19.14,47.43 58.65,49.91 119.41,7.89 272.95,-195.96 582.49,-340.34 931.18,-433.54 349.5,-93.62 684.04,-140.63 1005.64,-140.63 237.16,0 435.63,30.78 596.25,93.2 160.62,62 282.51,152.7 362.83,270.45 80.3,117.33 133.14,244.66 161.01,382.36 27.05,140.63 34.95,304.15 23.7,489.32 -27.87,426.05 -27.87,867.93 0,1326.45 11.24,224.26 34.97,379.88 74.07,463.5 37.45,87.79 100.28,146.05 182.26,176 84.44,28.3 239.64,43.26 461,43.26 31.2,24.13 44.53,56.59 44.53,97.37 0,40.36 -13.33,72.8 -44.53,96.95 -145.62,0 -329.52,-5.41 -550.87,-17.47 -223.86,-12.09 -415.67,-17.5 -580.43,-17.5 -160.62,0 -351.16,5.41 -572.94,17.5 -219.27,12.06 -399.84,17.47 -542.98,17.47 -25.37,-24.15 -39.12,-55.35 -39.12,-93.2 0,-37.88 13.75,-68.65 39.12,-93.2 164.76,0 284.17,-5.41 357.42,-17.47 72.4,-12.09 136.89,-43.29 195.54,-96.13 57.01,-51.18 94.05,-116.09 107.77,-195.96 15.81,-76.97 27.87,-202.64 35.79,-378.64 27.03,-510.94 27.03,-1000.23 0,-1466.66 -15.81,-250.04 -82.8,-427.31 -202.22,-532.58 -117.75,-106.93 -290.43,-159.77 -515.93,-159.77 -597.91,0 -1120.91,170.59 -1568.2,511.36 12.06,102.36 15.81,205.12 12.06,307.9 -27.87,443.55 -27.87,888.31 0,1331.86 7.92,168.93 19.14,293.33 33.28,374.47 15.41,79.45 50.76,146.05 107.77,197.2 54.93,51.6 117.75,84.07 185.98,94.87 68.65,12.09 182.23,21.64 343.27,29.56 27.03,24.55 41.18,55.33 41.18,93.2 0,37.85 -14.15,69.05 -41.18,93.2 -148.95,0 -325.8,-5.41 -529.25,-17.47 -206.38,-12.09 -388.62,-17.5 -548.81,-17.5 -161.43,0 -353.25,5.41 -574.6,17.5 -223.83,12.06 -404.41,17.47 -547.12,17.47 -29.14,-24.15 -44.95,-55.35 -44.95,-93.2 0,-37.88 15.81,-68.65 44.95,-93.2 99.85,-5.41 176.82,-9.58 227.18,-14.99 53.24,-5.41 106.51,-13.3 164.76,-24.13 56.99,-10.82 98.61,-27.05 123.98,-49.94 23.31,-21.62 50.36,-47.43 76.57,-74.46 27.03,-28.3 46.17,-69.08 56.57,-123.16 11.67,-54.08 21.22,-111.92 29.14,-173.1 7.89,-59.5 13.73,-138.97 17.9,-236.32 27.03,-483.91 27.03,-965.31 0,-1446.71 -27.48,-468.91 -282.11,-704.41 -764.33,-704.41 -176.85,0 -382.79,39.54 -617.89,119.02 -235.5,78.63 -460.57,190.55 -674.85,336.59z"/>
 </g>
</svg>
