<?xml version="1.0" encoding="UTF-8"?>
<!DOCTYPE svg PUBLIC "-//W3C//DTD SVG 1.1//EN" "http://www.w3.org/Graphics/SVG/1.1/DTD/svg11.dtd">
<!-- Creator: CorelDRAW 2019 (64 Bit) -->
<svg xmlns="http://www.w3.org/2000/svg" xml:space="preserve" width="28.0159mm" height="25.3658mm" version="1.1" style="shape-rendering:geometricPrecision; text-rendering:geometricPrecision; image-rendering:optimizeQuality; fill-rule:evenodd; clip-rule:evenodd"
viewBox="0 0 376.69 341.06"
 xmlns:xlink="http://www.w3.org/1999/xlink">
 <defs>
  <style type="text/css">
   <![CDATA[
    .fil0 {fill:#1F2E37;fill-rule:nonzero}
   ]]>
  </style>
 </defs>
 <g id="Camada_x0020_1">
  <metadata id="CorelCorpID_0Corel-Layer"/>
  <path class="fil0" d="M45.86 159.28l-4.98 -1.02 1.99 -0.97 1.26 0.26c1.49,0.3 4.66,1.62 6.91,4.38 -1.94,-1.6 -4.04,-2.42 -5.18,-2.65zm-18.72 16.07c-2.43,0 -3.62,-0.03 -4.14,-0.1l-1.49 -0.21 0 -1.5c0.61,0.05 1.79,0.08 3.9,0.08 6.42,0 10.4,-2.69 10.4,-7.02 0,-1.02 -0.21,-2.31 -0.99,-3.51 2.24,1.53 2.73,3.69 2.73,5.24 0,4.33 -3.99,7.02 -10.4,7.02zm-5.63 -25.39l0 -9.63c0.86,-0.08 2.68,-0.17 3.46,-0.17 3.21,0 7.28,0.96 7.28,4.76 0,4.25 -4.16,5.11 -7.54,5.11 -0.78,0 -2.43,0 -3.21,-0.08zm12.57 16.64c0,4.24 -5.11,5.29 -8.67,5.29 -0.87,0 -3.3,0 -3.9,-0.08l0 -10.4c0.86,-0.09 2.86,-0.18 3.64,-0.18 3.56,0 8.93,0.69 8.93,5.38zm-7.63 -13.1c-1.31,0 -2.62,-0.01 -3.39,-0.09l-1.54 -0.17 0 -1.55c0.78,0.07 1.98,0.08 3.21,0.08 8.37,0 9.28,-4.79 9.28,-6.85 0,-1.2 -0.35,-2.25 -0.94,-3.16 1.7,1.12 2.67,2.8 2.67,4.9 0,2.05 -0.91,6.84 -9.28,6.84zm-22.97 -22.92l0 53.55c-0.61,-0.07 -1.2,-0.11 -1.73,-0.18l0 -55.1c4.47,-0.55 11.75,-1.27 18.63,-1.27 10.4,0 22.29,1.57 27.53,7.94 -5.83,-4.93 -16.41,-6.21 -25.79,-6.21 -6.89,0 -14.16,0.73 -18.64,1.27zm41.01 25.26c4.25,-2.08 7.89,-5.98 7.89,-12.39 0,-14.31 -16.82,-17.61 -31.99,-17.61 -7.63,0 -15.69,0.87 -20.37,1.47l0 58.18c4.85,0.61 12.92,1.22 20.63,1.22 18.47,0 34.68,-3.04 34.68,-17.52 0,-8.49 -7.02,-12.56 -10.83,-13.35zm15.17 28l19.24 -55.13 24.5 0 0.61 1.74 -23.38 0 -18.64 53.4 -2.34 0zm45.48 0l-1.26 0 -2.21 -8.06 1.26 0 2.22 8.06zm-18.89 -21.75l4.95 -18.03 4.94 18.03 -9.89 0zm-0.54 3.46l0.48 -1.73 12.22 0 -6.11 -22.3 0.63 -2.3 7.21 26.33 -14.43 0zm-3.19 10.23l17.33 0 2.69 9.8 22.62 0 -20.55 -58.6 -26.96 0 -20.46 58.6 22.71 0 2.6 -9.8zm69.94 -20.54c0.64,0.07 1.27,0.08 1.99,0.08 7.55,0 12.06,-2.92 12.06,-7.8 0,-1.4 -0.4,-2.62 -1.12,-3.68 1.83,1.31 2.85,3.15 2.85,5.41 0,4.89 -4.51,7.81 -12.05,7.81 -0.81,0 -1.51,0 -2.24,-0.1l-1.49 -0.21 0 -1.5zm12.31 -7.73c0,5.2 -6.59,6.08 -10.32,6.08 -0.78,0 -1.39,0 -1.99,-0.08l0 -11.71c0.7,-0.08 1.57,-0.17 2.6,-0.17 3.81,0 9.71,1.04 9.71,5.89zm-30.51 36.32l-1.74 0 0 -54.78c5.17,-0.77 13.79,-1.48 20.81,-1.48 14.03,0 23.4,2.81 28.1,8.36 -5.11,-4.39 -13.89,-6.63 -26.37,-6.63 -7.02,0 -15.65,0.72 -20.81,1.49l0 53.04zm45.9 -17.63c-0.88,-0.66 -1.8,-1.11 -2.8,-1.3l-5.34 -1.03 2.16 -0.98 1.44 0.28c1.68,0.32 3.18,1.35 4.53,3.04zm-13.09 17.63c-1.58,-7.84 -3.08,-12.31 -5.02,-14.88 2.69,1.93 4.5,6.1 6.39,14.88l-1.36 0zm-14.51 -16.55c6.77,0 9.54,-0.09 13.09,18.29l22.46 0c-2.43,-17.77 -7.19,-23.14 -12.14,-24.1 4.77,-2.17 10.75,-6.16 10.75,-15.26 0,-16.3 -16.56,-20.38 -33.38,-20.38 -7.81,0 -17.51,0.87 -22.54,1.74l0 58 21.76 0 0 -18.29zm47.75 16.84c-0.61,-0.07 -1.19,-0.11 -1.73,-0.18l0 -55.1c4.48,-0.55 11.75,-1.27 18.64,-1.27 10.39,0 22.29,1.57 27.53,7.94 -5.83,-4.93 -16.42,-6.21 -25.79,-6.21 -6.89,0 -14.16,0.73 -18.65,1.27l0 53.55zm47.58 -22.21c-1.94,-1.59 -4.05,-2.42 -5.18,-2.65l-4.98 -1.02 1.99 -0.97 1.26 0.26c1.49,0.3 4.65,1.62 6.91,4.38zm-25.9 -0.71c3.56,0 8.93,0.69 8.93,5.38 0,4.24 -5.12,5.29 -8.67,5.29 -0.87,0 -3.29,0 -3.9,-0.08l0 -10.4c0.87,-0.09 2.86,-0.18 3.64,-0.18zm-3.64 -11.26l0 -9.63c0.87,-0.08 2.69,-0.17 3.47,-0.17 3.21,0 7.29,0.96 7.29,4.76 0,4.25 -4.16,5.11 -7.55,5.11 -0.77,0 -2.43,0 -3.21,-0.08zm3.21 1.82c8.38,0 9.28,-4.79 9.28,-6.85 0,-1.2 -0.35,-2.25 -0.94,-3.16 1.7,1.13 2.67,2.8 2.67,4.9 0,2.05 -0.9,6.84 -9.28,6.84 -1.31,0 -2.63,-0.01 -3.4,-0.09l-1.55 -0.17 0 -1.55c0.79,0.07 2,0.08 3.21,0.08zm2.43 23.58c-2.43,0 -3.62,-0.03 -4.14,-0.1l-1.5 -0.21 0 -1.5c0.61,0.05 1.79,0.08 3.9,0.08 6.42,0 10.41,-2.69 10.41,-7.02 0,-1.02 -0.22,-2.31 -0.99,-3.51 2.24,1.53 2.72,3.69 2.72,5.24 0,4.33 -3.99,7.02 -10.41,7.02zm28.17 -6.16c0,-8.49 -7.02,-12.56 -10.83,-13.35 4.25,-2.08 7.89,-5.98 7.89,-12.39 0,-14.31 -16.82,-17.61 -31.99,-17.61 -7.63,0 -15.69,0.87 -20.37,1.47l0 58.18c4.85,0.61 12.92,1.22 20.63,1.22 18.47,0 34.67,-3.04 34.67,-17.52zm55.13 3.47l-24.62 0 0 -1.74 24.62 0 0 1.74zm-43.18 11.19l-1.73 0 0 -55.13 44.91 0 0 1.74 -43.18 0 0 53.4zm39.88 -33.55l0 1.74 -21.32 0 0 -1.74 21.32 0zm5.03 18.9l-26.36 0 0 -5.37 23.06 0 0 -15.26 -23.06 0 0 -5.11 26.36 0 0 -16.48 -48.38 0 0 58.6 48.38 0 0 -16.39zm56.96 -4.28l-5.33 -1.02 2.16 -0.99 1.44 0.28c1.68,0.32 3.18,1.35 4.53,3.04 -0.88,-0.66 -1.81,-1.11 -2.8,-1.3zm-10.3 18.93c-1.58,-7.84 -3.08,-12.31 -5.02,-14.88 2.69,1.93 4.51,6.1 6.39,14.88l-1.37 0zm-10.87 -26.78c-0.81,0 -1.51,0 -2.23,-0.1l-1.5 -0.21 0 -1.5c0.64,0.07 1.27,0.08 1.99,0.08 7.54,0 12.05,-2.92 12.05,-7.8 0,-1.4 -0.39,-2.62 -1.12,-3.68 1.83,1.31 2.85,3.15 2.85,5.41 0,4.89 -4.51,7.81 -12.05,7.81zm8.58 -9.54c0,5.2 -6.6,6.08 -10.32,6.08 -0.78,0 -1.38,0 -1.99,-0.08l0 -11.71c0.69,-0.08 1.56,-0.17 2.6,-0.17 3.81,0 9.72,1.04 9.72,5.89zm-30.52 36.32l-1.73 0 0 -54.78c5.17,-0.77 13.79,-1.48 20.8,-1.48 14.03,0 23.4,2.81 28.1,8.35 -5.11,-4.38 -13.89,-6.62 -26.37,-6.62 -7.02,0 -15.63,0.72 -20.8,1.49l0 53.04zm41.69 -22.36c4.77,-2.17 10.75,-6.16 10.75,-15.26 0,-16.3 -16.55,-20.38 -33.38,-20.38 -7.8,0 -17.51,0.87 -22.53,1.74l0 58 21.75 0 0 -18.29c6.76,0 9.54,-0.09 13.09,18.29l22.45 0c-2.43,-17.77 -7.19,-23.14 -12.14,-24.1zm-266.37 62.95c-3.65,-0.86 -6.21,-1.47 -6.86,-3.18 1.23,0.65 3.05,1.09 5.3,1.63 4.89,1.15 11.46,2.71 15.22,7.19 -3.84,-3.3 -9.39,-4.62 -13.66,-5.63zm-4.52 22.22c-6.63,0 -11.33,-1.37 -16.3,-3.62l-2.27 10.12c-0.59,-0.2 -1.18,-0.4 -1.77,-0.62l2.48 -11.07c4.97,2.25 9.67,3.61 16.3,3.61 4.89,0 5.92,-1.92 5.92,-3.51 0,-0.33 -0.06,-0.63 -0.16,-0.9 1.07,0.56 1.72,1.31 1.72,2.46 0,1.61 -1.02,3.52 -5.92,3.52zm-15.62 -14.36c-2.86,-2.41 -4.87,-5.95 -4.83,-11.37 0.07,-10.42 7.89,-16.64 20.91,-16.64 5.94,0 12.11,0.87 18.36,2.58l-0.25 1.12c-5.63,-1.39 -11.19,-2.15 -16.56,-2.15 -13.02,0 -20.83,6.23 -20.91,16.64 -0.03,4.36 1.28,7.5 3.27,9.82zm13.12 -13.5c0,-1.57 1.71,-1.94 4.36,-1.94 6.17,0 12.17,1.57 15.61,3.11l3.2 -14.2c-5.85,-1.72 -12.8,-3.05 -20.21,-3.05 -13.42,0 -22.39,6.39 -22.47,18.18 -0.16,19.97 24.81,16.77 24.81,20.68 0,1.1 -1.02,1.95 -4.37,1.95 -7.49,0 -12.41,-1.87 -17.4,-4.28l-3.2 14.28c5.93,2.33 12.49,3.98 21.93,3.98 13.89,0 22.94,-5.78 22.94,-18.73 0,-18.65 -25.2,-16.15 -25.2,-19.97zm68.18 -13.5l17.09 0 0 1.56 -15.53 0 0 18.96 -16.23 0 0 -1.57 14.67 0 0 -18.95zm1.56 49.62l-1.56 0 0 -18.02 1.56 0 0 18.02zm-17.79 -48.06l-15.53 0 0 48.06 -1.56 0 0 -49.62 17.09 0 0 1.56zm14.67 15.84l-13.11 0 0 -18.96 -20.21 0 0 52.75 20.21 0 0 -19.59 13.11 0 0 19.59 20.2 0 0 -52.75 -20.2 0 0 18.96zm59.82 -16.86c-17.46,0 -28.32,9.91 -28.32,25.84 0,7.15 2.21,13.07 6.2,17.45 -4.98,-4.47 -7.76,-10.96 -7.76,-19.01 0,-15.93 10.85,-25.83 28.32,-25.83 9.59,0 17.16,3.01 22.05,8.37 -4.88,-4.37 -11.87,-6.81 -20.49,-6.81zm-10.92 24.27c0,-7.8 3.12,-12.25 9.36,-12.25 6.17,0 9.29,4.45 9.29,12.25 0,7.81 -3.12,12.25 -9.29,12.25 -6.24,0 -9.36,-4.44 -9.36,-12.25zm10.92 15.37c-2.41,0 -5.77,-0.65 -8.13,-3.64 2.14,1.67 4.66,2.08 6.57,2.08 6.89,0 10.85,-5.03 10.85,-13.81 0,-4.4 -0.99,-7.86 -2.86,-10.21 2.86,2.24 4.42,6.27 4.42,11.78 0,8.77 -3.95,13.81 -10.85,13.81zm-1.56 -42.76c-17.79,0 -29.88,10.3 -29.88,27.38 0,17.09 12.09,27.39 29.88,27.39 17.71,0 29.81,-10.31 29.81,-27.39 0,-17.09 -12.1,-27.38 -29.81,-27.38zm58.5 3.11c-8.17,0 -14.05,0.59 -17.4,1.05l0 48.03 -1.56 0 0 -49.6c3.33,-0.46 9.22,-1.04 17.4,-1.04 5.1,0 18.79,0.76 25.47,8.39 -7.07,-6.17 -19.18,-6.83 -23.92,-6.83zm-0.7 22.95l0 -11.16c2.89,-0.39 10.06,0.23 10.06,5.46 0,5.54 -6.87,5.93 -10.06,5.7zm9.26 1.95c-2.09,1.01 -4.58,1.22 -6.3,1.22l0 0c-0.56,0 -1.07,-0.03 -1.51,-0.06l-1.45 -0.11 0 -1.45c0.42,0.03 0.89,0.06 1.4,0.06l0 0c1.72,0 4.22,-0.21 6.31,-1.22 2.57,-1.23 3.92,-3.34 3.92,-6.09 0,-1.42 -0.41,-2.59 -1.09,-3.56 1.58,1.14 2.64,2.8 2.64,5.12 0,2.75 -1.35,4.85 -3.92,6.08zm-10.12 -28.01c-8.97,0 -15.46,0.7 -18.96,1.25 0,0 0,0.08 0,52.51l19.97 0 0 -13.57c13.73,1.08 29.81,-4.14 29.81,-19.67 0,-16.08 -17.02,-20.52 -30.82,-20.52zm-251.32 -129.83c2.38,4.74 5.58,5.77 9.27,3.99 4.26,-2.04 4.52,-5.36 2.86,-8.96 -0.81,-1.77 -1.2,-2.65 -2.02,-4.41 -1.87,-0.1 -2.81,-0.16 -4.69,-0.23 -0.32,-0.69 -0.49,-1.02 -0.82,-1.73 4.23,-2 6.34,-2.96 10.62,-4.81 2.6,5.98 5.2,11.94 7.8,17.93 -1.61,0.69 -2.4,1.07 -4,1.78 -0.8,-1.07 -1.22,-1.6 -2.03,-2.67 -0.47,3.09 -2.98,5.51 -5.78,6.85 -7.19,3.45 -14.03,2.7 -17.75,-4.36 -3.4,-6.45 -6.82,-12.94 -10.21,-19.39 -3.87,-7.35 1.3,-14.11 7.75,-17.22 2.95,-1.41 6.44,-2.39 9.37,-1.41 0.08,-0.04 0.12,-0.07 0.2,-0.1 -0.17,-0.97 -0.26,-1.46 -0.43,-2.41 1.91,-0.86 2.87,-1.29 4.78,-2.12 1.98,4.57 2.99,6.85 4.98,11.43 -2.8,1.22 -4.2,1.85 -6.98,3.12 -0.56,-1.23 -0.84,-1.85 -1.41,-3.08 -1.57,-3.42 -5.31,-3.27 -8.63,-1.67 -3.4,1.64 -5.25,4.86 -2.72,9.89 3.26,6.51 6.57,13.08 9.83,19.58zm30.58 -1.39c-0.28,-0.68 -0.43,-1.03 -0.71,-1.71 0.83,-1.17 1.26,-1.76 2.1,-2.93 -4.66,-11.7 -9.3,-23.39 -13.94,-35.02 -1.3,-0.2 -1.96,-0.3 -3.27,-0.47 -0.25,-0.62 -0.38,-0.93 -0.63,-1.55 8.54,-3.48 16.47,-6.39 25.17,-9.26 1.26,3.8 1.9,5.71 3.16,9.52 -1.39,0.45 -2.09,0.7 -3.48,1.19 -1.59,-2.12 -2.39,-3.17 -4,-5.27 -3.82,1.33 -5.73,2.03 -9.53,3.46 1.96,5.2 3.94,10.45 5.91,15.72 2.57,-0.96 3.86,-1.43 6.44,-2.35 0.23,-1.57 0.35,-2.35 0.59,-3.93 0.82,-0.29 1.22,-0.43 2.04,-0.7 1.02,2.96 2.5,7.24 3.52,10.2 -0.79,0.27 -1.19,0.4 -1.99,0.68 -1.14,-1.04 -1.7,-1.56 -2.85,-2.58 -2.56,0.91 -3.83,1.38 -6.37,2.34 1.66,4.42 3.29,8.79 4.96,13.22 0.36,0.95 0.31,1.57 -0.64,2.34 0.05,0.12 0.07,0.2 0.11,0.32 3.61,-1.37 7.17,-2.68 10.81,-3.93 0.07,-2.61 0.1,-3.93 0.2,-6.56 1.15,-0.38 1.71,-0.57 2.87,-0.95 1.25,3.81 1.89,5.72 3.15,9.53 -7.94,2.6 -15.79,5.5 -23.63,8.69zm39.74 -15.63c0.21,0.76 0.31,1.13 0.52,1.9 -3.15,0.86 -6.86,1.94 -9.98,2.91 -0.23,-0.76 -0.35,-1.13 -0.58,-1.88 0.88,-0.97 1.32,-1.45 2.22,-2.41 -3.58,-11.99 -7.18,-24.06 -10.77,-36.06 -1.27,-0.32 -1.91,-0.47 -3.18,-0.77 -0.22,-0.72 -0.33,-1.09 -0.54,-1.79 3.44,-1.05 5.09,-1.53 8.47,-2.49 3.17,-0.89 3.82,-0.79 5.25,1.34 4.89,6.94 7.27,10.44 11.89,17.5 2.45,4.55 3.66,6.83 6.03,11.42 0.06,-0.02 0.08,-0.02 0.13,-0.04 -0.77,-3.16 -2.03,-7.26 -2.8,-10.43 -1.95,-8.04 -2.93,-12.07 -4.88,-20.12 -1.25,-0.38 -1.87,-0.58 -3.13,-0.94 -0.19,-0.78 -0.3,-1.15 -0.49,-1.92 3.56,-0.89 7.12,-1.73 10.69,-2.52 0.17,0.78 0.27,1.17 0.44,1.94 -0.96,0.89 -1.44,1.33 -2.39,2.23 3.06,13.39 6.11,26.73 9.17,40.12 -2.23,0.52 -3.34,0.77 -5.56,1.32 -1.54,0.38 -2.59,-0.27 -3.3,-1.41 -7.75,-12.8 -11.83,-19.12 -20.38,-31.56 -0.08,0.05 -0.11,0.07 -0.19,0.11 1.05,2.36 1.56,3.52 2.6,5.89 2.53,8.91 5.08,17.89 7.61,26.8 1.27,0.34 1.91,0.51 3.17,0.86zm34.76 -47.08c1.88,12.06 3.76,24.11 5.63,36.18 1.29,0.61 1.93,0.92 3.2,1.53 0.13,0.86 0.2,1.29 0.32,2.15 -3.79,0.56 -8.88,1.4 -12.6,2.08 -0.15,-0.85 -0.25,-1.28 -0.4,-2.14 1.01,-0.99 1.52,-1.48 2.54,-2.47 -2.11,-12.01 -4.21,-24.05 -6.32,-36.06 -2.18,0.38 -3.27,0.57 -5.45,0.99 -0.38,3.07 -0.55,4.6 -0.9,7.65 -1.36,0.28 -2.05,0.41 -3.41,0.69 -0.8,-4.49 -1.21,-6.73 -2,-11.21 11.89,-2.43 17.87,-3.42 29.88,-4.94 0.7,4.51 1.05,6.75 1.74,11.25 -1.37,0.17 -2.07,0.27 -3.44,0.46 -1.37,-2.78 -2.07,-4.17 -3.48,-6.94 -2.13,0.3 -3.19,0.46 -5.32,0.79zm22.05 38.19c-0.08,-0.73 -0.12,-1.1 -0.2,-1.84 1.1,-0.89 1.65,-1.34 2.77,-2.23 -1.27,-12.45 -2.53,-24.85 -3.81,-37.31 -1.18,-0.56 -1.77,-0.82 -2.96,-1.36 -0.08,-0.74 -0.13,-1.11 -0.2,-1.85 5.32,-0.58 7.98,-0.82 13.31,-1.23 0.06,0.74 0.09,1.11 0.15,1.85 -1.07,0.75 -1.6,1.12 -2.66,1.87 0.97,11.65 1.93,23.31 2.89,34.96 0.08,1.02 -0.14,1.6 -1.24,2.09 0.01,0.13 0.02,0.2 0.03,0.33 3.79,-0.33 6.85,-0.55 10.65,-0.77 0.77,-2.5 1.16,-3.75 1.95,-6.25 1.19,-0.07 1.8,-0.1 2.99,-0.14 0.17,4 0.26,6 0.43,10.01 -8.31,0.36 -15.88,0.95 -24.09,1.86zm29.55 -2.03c-0.02,-0.74 -0.03,-1.12 -0.06,-1.86 1.18,-0.79 1.76,-1.19 2.95,-1.98 -0.24,-12.59 -0.49,-25.17 -0.74,-37.7 -1.13,-0.64 -1.7,-0.96 -2.84,-1.6 -0.02,-0.66 -0.02,-0.99 -0.04,-1.66 9.05,-0.25 17.37,-0.19 26.42,0.16 -0.16,4.01 -0.24,6.03 -0.39,10.04 -1.45,-0.06 -2.16,-0.08 -3.61,-0.13 -0.73,-2.53 -1.12,-3.8 -1.88,-6.33 -4,-0.09 -5.99,-0.11 -9.99,-0.1 0,5.56 0,11.17 0,16.8 2.7,0 4.06,0.01 6.76,0.05 0.76,-1.39 1.14,-2.08 1.91,-3.47 0.85,0.02 1.28,0.02 2.14,0.05 -0.09,3.13 -0.22,7.66 -0.3,10.79 -0.82,-0.02 -1.24,-0.04 -2.07,-0.06 -0.69,-1.36 -1.04,-2.03 -1.74,-3.41 -2.68,-0.05 -4.01,-0.05 -6.69,-0.05 0,4.72 -0,9.38 -0,14.11 0,1.03 -0.25,1.58 -1.39,1.98 0,0.13 0,0.2 0,0.33 3.8,-0.03 7.53,0.01 11.33,0.11 0.97,-2.42 1.46,-3.63 2.47,-6.05 1.2,0.04 1.79,0.06 2.98,0.1 -0.16,4.01 -0.24,6.03 -0.41,10.03 -8.24,-0.34 -16.49,-0.4 -24.81,-0.16zm42.09 -0.71c-0.07,0.79 -0.11,1.2 -0.18,1.99 -3.23,-0.29 -6.97,-0.57 -10.2,-0.77 0.05,-0.79 0.06,-1.18 0.11,-1.97 1.15,-0.59 1.75,-0.9 2.91,-1.49 0.86,-12.5 1.71,-25.05 2.57,-37.54 -1.13,-0.74 -1.7,-1.11 -2.85,-1.84 0.04,-0.75 0.07,-1.11 0.11,-1.86 3.92,0.24 6.96,0.47 10.89,0.81 2.73,0.24 3.72,0.97 4.06,3.39 1.77,12.41 2.08,21.34 2.21,33.97 0.05,0 0.08,0.02 0.14,0.02 3.93,-13.14 6,-19.68 10.36,-32.72 0.9,-2.26 1.94,-2.56 4.7,-2.13 4.14,0.63 6.48,0.89 10.67,1.59 -0.13,0.73 -0.17,1.09 -0.3,1.84 -1.25,0.46 -1.87,0.68 -3.11,1.17 -2,12.36 -3.99,24.65 -6,37.02 1.04,0.95 1.55,1.41 2.57,2.37 -0.13,0.74 -0.19,1.09 -0.32,1.83 -3.72,-0.64 -8.75,-1.4 -12.49,-1.9 0.1,-0.74 0.15,-1.1 0.25,-1.84 1.26,-0.61 1.9,-0.9 3.18,-1.49 1.41,-9.93 2.82,-19.87 4.23,-29.82 0.45,-2.51 0.67,-3.77 1.12,-6.29 -0.11,-0.02 -0.17,-0.02 -0.29,-0.03 -5.43,15.24 -8,22.89 -12.81,38.28 -2.18,-0.28 -3.27,-0.39 -5.45,-0.63 -1.38,-0.15 -1.99,-0.79 -2.06,-2.01 -0.86,-12.83 -2.05,-25.05 -3.73,-37.87 -0.14,-0.01 -0.22,-0.02 -0.37,-0.03 -0.12,3.29 -0.17,4.95 -0.29,8.24 -0.76,9.3 -1.52,18.54 -2.27,27.83 1.06,0.76 1.59,1.13 2.64,1.89zm35.29 6.92c0.13,-0.72 0.21,-1.1 0.35,-1.82 1.31,-0.53 1.98,-0.78 3.32,-1.29 2.46,-12.35 4.92,-24.7 7.36,-36.98 -0.97,-0.87 -1.46,-1.3 -2.44,-2.17 0.13,-0.65 0.18,-0.97 0.31,-1.63 8.93,1.71 17.09,3.55 25.92,5.84 -1.01,3.88 -1.52,5.84 -2.53,9.72 -1.41,-0.38 -2.12,-0.54 -3.54,-0.91 -0.18,-2.63 -0.27,-3.93 -0.48,-6.57 -3.91,-0.96 -5.87,-1.42 -9.8,-2.28 -1.19,5.43 -2.39,10.91 -3.59,16.42 2.66,0.58 3.99,0.88 6.63,1.51 1.04,-1.2 1.57,-1.8 2.63,-2.98 0.83,0.2 1.24,0.29 2.08,0.5 -0.76,3.03 -1.85,7.44 -2.6,10.48 -0.81,-0.2 -1.22,-0.3 -2.03,-0.5 -0.38,-1.49 -0.58,-2.23 -0.98,-3.72 -2.62,-0.63 -3.92,-0.93 -6.55,-1.51 -1.01,4.61 -2.01,9.19 -3.02,13.81 -0.22,0.99 -0.6,1.49 -1.81,1.64 -0.02,0.13 -0.05,0.18 -0.07,0.32 3.73,0.79 7.4,1.64 11.12,2.57 1.48,-2.17 2.23,-3.25 3.73,-5.4 1.17,0.29 1.75,0.45 2.91,0.74 -1.02,3.89 -1.54,5.83 -2.56,9.71 -8.04,-2.12 -16.13,-3.96 -24.33,-5.52zm41.63 8.46c-0.24,0.75 -0.37,1.12 -0.61,1.88 -3.12,-0.98 -6.82,-2.09 -9.96,-2.97 0.22,-0.76 0.31,-1.15 0.53,-1.91 1.26,-0.32 1.9,-0.5 3.18,-0.82 3.52,-12.02 7.06,-24.1 10.57,-36.13 -0.9,-0.95 -1.35,-1.43 -2.26,-2.38 0.2,-0.71 0.3,-1.06 0.5,-1.77 3.45,0.98 5.11,1.48 8.47,2.51 3.16,0.98 3.65,1.41 3.69,3.97 0.34,8.49 0.45,12.72 0.51,21.17 -0.41,5.15 -0.65,7.73 -1.14,12.85 0.06,0.01 0.09,0.03 0.14,0.05 1.08,-3.07 2.23,-7.2 3.31,-10.28 2.74,-7.81 4.11,-11.72 6.85,-19.53 -0.85,-1.01 -1.28,-1.5 -2.14,-2.5 0.26,-0.75 0.38,-1.14 0.65,-1.89 3.48,1.2 6.95,2.45 10.41,3.73 -0.28,0.74 -0.41,1.12 -0.68,1.87 -1.3,0.22 -1.95,0.34 -3.24,0.57 -4.71,12.91 -9.41,25.74 -14.12,38.64 -2.17,-0.8 -3.25,-1.17 -5.43,-1.93 -1.51,-0.53 -2.04,-1.65 -2.01,-2.99 0.43,-14.96 0.44,-22.48 0.02,-37.58 -0.09,0 -0.15,-0.01 -0.24,-0.01 -0.4,2.55 -0.61,3.82 -1.03,6.37 -2.72,8.85 -5.45,17.77 -8.17,26.62 0.88,0.97 1.33,1.46 2.21,2.43zm39.74 -20.69c-0.75,0.07 -3.69,-1.56 -3.73,-1.77 -0.15,-0.76 3.91,-8.11 4.54,-8.44 0.44,-0.22 5.67,1.98 5.8,2.35 0.41,1.14 -4.31,7.64 -6.6,7.86zm7.45 37.47c3.27,1.55 5.67,0.26 7.08,-2.61 0.96,-1.95 1.46,-2.93 2.41,-4.87 3.7,-7.51 -14.15,-12.05 -9.68,-22.3 0.87,-1.98 1.3,-2.98 2.17,-4.98 2.68,-6.16 9.04,-6.11 14.62,-3.48 2.75,1.3 5.34,3.12 6.52,6.36 0.1,0.05 0.17,0.08 0.27,0.13 0.65,-0.76 0.98,-1.15 1.63,-1.91 1.85,0.93 2.78,1.39 4.63,2.36 -1.82,3.51 -3.67,7.1 -5.52,10.67 -2.71,-1.41 -4.06,-2.09 -6.79,-3.42 0.57,-1.18 0.86,-1.77 1.44,-2.94 1.41,-2.87 0.35,-5.31 -2.85,-6.83 -3.2,-1.52 -5.61,-0.58 -6.89,2.2 -0.9,1.97 -1.36,2.97 -2.27,4.95 -3.22,7.02 14.87,12.01 9.44,22.51 -1.02,1.94 -1.53,2.92 -2.54,4.87 -3.26,6.3 -10.04,5.82 -15.83,3.07 -5.85,-2.78 -9.78,-7.75 -7.06,-14.02 0.56,-1.29 0.84,-1.93 1.41,-3.21 2.89,1.25 4.34,1.89 7.21,3.21 -0.6,1.3 -0.9,1.94 -1.5,3.24 -1.6,3.49 -0.66,5.66 2.12,6.99zm-173.97 -6.72c8.06,0 18.37,2.9 18.37,13.09 0,10.18 -8.42,22.01 -41.51,22.01 -33.08,0 -29.18,-19.36 -29.18,-19.36 0,0 1.02,-14.09 13.39,-13.41 7.87,0.44 6.48,5.23 1.2,2.2 -5.59,-3.19 -14.09,14.1 1.39,13.72 15.47,-0.37 17.74,-18.24 36.35,-18.24zm35.51 0c-8.06,0 -18.37,2.9 -18.37,13.09 0,10.18 8.43,22.01 41.52,22.01 33.08,0 29.18,-19.36 29.18,-19.36 0,0 -1.02,-14.09 -13.4,-13.41 -7.86,0.44 -6.48,5.23 -1.2,2.2 5.61,-3.19 14.09,14.1 -1.38,13.72 -15.48,-0.37 -17.74,-18.24 -36.35,-18.24zm60.41 216.44l-3.88 0 0 4.74 3.88 0c1.26,0 2.35,-1.09 2.35,-2.42 0,-1.27 -1.09,-2.32 -2.35,-2.32zm-68.53 2.88l-2.33 5.25 4.78 0 -2.38 -5.25 -0.07 0zm-127.06 -2.88c-3,0 -5.45,2.5 -5.45,5.51 0,3 2.45,5.45 5.45,5.45 3,0 5.48,-2.45 5.48,-5.45 0,-3.01 -2.48,-5.51 -5.48,-5.51zm88.41 0c-3,0 -5.45,2.5 -5.45,5.51 0,3 2.45,5.45 5.45,5.45 3,0 5.48,-2.45 5.48,-5.45 0,-3.01 -2.47,-5.51 -5.48,-5.51zm181.17 14.05c-3,0 -4.76,-1.4 -5.24,-1.86 -0.21,-0.21 -0.33,-0.33 -0.11,-0.71l0.85 -1.48c0.19,-0.34 0.6,-0.34 0.81,-0.16 0.12,0.08 2.05,1.47 3.59,1.47 1.25,0 2.17,-0.81 2.17,-1.83 0,-1.22 -1.02,-2.05 -3.02,-2.86 -2.23,-0.91 -4.47,-2.33 -4.47,-5.14 0,-2.12 1.57,-4.58 5.35,-4.58 2.43,0 4.29,1.23 4.76,1.6 0.24,0.13 0.31,0.55 0.15,0.79l-0.9 1.35c-0.19,0.29 -0.55,0.47 -0.84,0.29 -0.19,-0.11 -1.99,-1.32 -3.31,-1.32 -1.36,0 -2.09,0.92 -2.09,1.68 0,1.12 0.88,1.88 2.81,2.66 2.31,0.93 4.98,2.31 4.98,5.38 0,2.45 -2.12,4.71 -5.48,4.71zm-9.23 -14.5c0,0.24 -0.19,0.45 -0.45,0.45l-7.05 0 0 3.91 5.87 0c0.24,0 0.45,0.21 0.45,0.45l0 1.98c0,0.27 -0.21,0.46 -0.45,0.46l-5.87 0 0 4.16 7.05 0c0.26,0 0.45,0.22 0.45,0.45l0 1.95c0,0.24 -0.19,0.45 -0.45,0.45l-9.69 0c-0.26,0 -0.45,-0.21 -0.45,-0.45l0 -15.76c0,-0.24 0.19,-0.45 0.45,-0.45l9.69 0c0.26,0 0.45,0.21 0.45,0.45l0 1.95zm-15.17 12.19c-1.61,1.58 -3.66,2.31 -5.77,2.31 -4.77,0 -8.6,-3.78 -8.6,-8.54 0,-4.77 3.84,-8.6 8.6,-8.6 2.4,0 4.14,0.77 5.76,2.22 0.21,0.19 0.21,0.47 0.01,0.66l-1.45 1.5c-0.17,0.19 -0.4,0.19 -0.59,0 -1,-0.88 -2.33,-1.4 -3.67,-1.4 -3.04,0 -5.3,2.54 -5.3,5.54 0,2.98 2.28,5.49 5.33,5.49 1.43,0 2.64,-0.54 3.64,-1.35 0.2,-0.18 0.45,-0.15 0.59,0l1.47 1.52c0.19,0.17 0.15,0.47 -0.03,0.64zm-18.93 1.62c0,0.24 -0.21,0.45 -0.45,0.45l-2.21 0c-0.24,0 -0.45,-0.21 -0.45,-0.45l0 -15.76c0,-0.24 0.21,-0.45 0.45,-0.45l2.21 0c0.24,0 0.45,0.21 0.45,0.45l0 15.76zm-6.74 -15.59l-7.37 16.01c-0.08,0.15 -0.19,0.26 -0.42,0.26l-0.23 0c-0.22,0 -0.33,-0.11 -0.41,-0.26l-7.35 -16.01c-0.14,-0.31 0.05,-0.62 0.41,-0.62l2.43 0c0.21,0 0.35,0.14 0.4,0.26l4.57 10.24 0.16 0 4.57 -10.24c0.05,-0.11 0.19,-0.26 0.41,-0.26l2.43 0c0.36,0 0.55,0.31 0.41,0.62zm-18.73 15.35c0.17,0.31 0,0.69 -0.4,0.69l-2.5 0c-0.21,0 -0.33,-0.11 -0.37,-0.21l-3.17 -6.31 -2.64 0 0 6.07c0,0.24 -0.21,0.45 -0.45,0.45l-2.2 0c-0.26,0 -0.45,-0.21 -0.45,-0.45l0 -15.76c0,-0.24 0.19,-0.45 0.45,-0.45l6.81 0c2.86,0 5.2,2.29 5.2,5.12 0,2.19 -1.46,3.98 -3.53,4.81l3.26 6.05zm-17.04 -13.57c0,0.24 -0.2,0.45 -0.46,0.45l-7.05 0 0 3.91 5.88 0c0.24,0 0.45,0.21 0.45,0.45l0 1.98c0,0.27 -0.21,0.46 -0.45,0.46l-5.88 0 0 4.16 7.05 0c0.26,0 0.46,0.22 0.46,0.45l0 1.95c0,0.24 -0.2,0.45 -0.46,0.45l-9.69 0c-0.26,0 -0.45,-0.21 -0.45,-0.45l0 -15.76c0,-0.24 0.19,-0.45 0.45,-0.45l9.69 0c0.26,0 0.46,0.21 0.46,0.45l0 1.95zm-20.57 14.5c-3,0 -4.76,-1.4 -5.24,-1.86 -0.21,-0.21 -0.33,-0.33 -0.11,-0.71l0.86 -1.48c0.19,-0.34 0.59,-0.34 0.8,-0.16 0.12,0.08 2.05,1.47 3.6,1.47 1.24,0 2.16,-0.81 2.16,-1.83 0,-1.22 -1.02,-2.05 -3.02,-2.86 -2.23,-0.91 -4.48,-2.33 -4.48,-5.14 0,-2.12 1.58,-4.58 5.36,-4.58 2.43,0 4.29,1.23 4.76,1.6 0.24,0.13 0.31,0.55 0.14,0.79l-0.9 1.35c-0.19,0.29 -0.55,0.47 -0.83,0.29 -0.19,-0.11 -2,-1.32 -3.31,-1.32 -1.36,0 -2.09,0.92 -2.09,1.68 0,1.12 0.88,1.88 2.81,2.66 2.31,0.93 4.98,2.31 4.98,5.38 0,2.45 -2.12,4.71 -5.48,4.71zm-14.93 -0.69c0,0.24 -0.18,0.45 -0.45,0.45l-8.71 0c-0.26,0 -0.45,-0.21 -0.45,-0.45l0 -15.76c0,-0.24 0.19,-0.45 0.45,-0.45l2.19 0c0.24,0 0.45,0.21 0.45,0.45l0 13.36 6.07 0c0.26,0 0.45,0.22 0.45,0.45l0 1.95zm-13.63 0.45l-2.08 0c-0.36,0 -0.52,-0.14 -0.69,-0.47l-1.16 -2.57 -7.12 0 -1.17 2.57c-0.1,0.24 -0.31,0.47 -0.69,0.47l-2.08 0c-0.35,0 -0.55,-0.31 -0.41,-0.62l7.41 -16.02c0.07,-0.15 0.19,-0.27 0.41,-0.27l0.24 0c0.24,0 0.33,0.12 0.4,0.27l7.33 16.02c0.14,0.31 -0.04,0.62 -0.4,0.62zm-19 -0.18c0,0.24 -0.21,0.43 -0.45,0.43l-0.57 0 -9.95 -10.93 -0.03 0 0 10.24c0,0.24 -0.19,0.45 -0.45,0.45l-2.17 0c-0.24,0 -0.45,-0.21 -0.45,-0.45l0 -16.02c0,-0.24 0.22,-0.43 0.45,-0.43l0.59 0 9.91 10.52 0.03 0 0 -9.83c0,-0.24 0.19,-0.45 0.45,-0.45l2.19 0c0.24,0 0.45,0.21 0.45,0.45l0 16.02zm-27.21 0.43c-4.76,0 -8.54,-3.78 -8.54,-8.54 0,-4.77 3.78,-8.6 8.54,-8.6 4.77,0 8.57,3.83 8.57,8.6 0,4.76 -3.8,8.54 -8.57,8.54zm-13.13 -0.69c0,0.24 -0.22,0.45 -0.45,0.45l-2.22 0c-0.23,0 -0.45,-0.21 -0.45,-0.45l0 -15.76c0,-0.24 0.22,-0.45 0.45,-0.45l2.22 0c0.24,0 0.45,0.21 0.45,0.45l0 15.76zm-13.09 0.69c-3,0 -4.77,-1.4 -5.24,-1.86 -0.21,-0.21 -0.33,-0.33 -0.12,-0.71l0.86 -1.48c0.19,-0.34 0.58,-0.34 0.81,-0.16 0.12,0.08 2.05,1.47 3.59,1.47 1.24,0 2.17,-0.81 2.17,-1.83 0,-1.22 -1.02,-2.05 -3.02,-2.86 -2.24,-0.91 -4.48,-2.33 -4.48,-5.14 0,-2.12 1.58,-4.58 5.36,-4.58 2.42,0 4.29,1.23 4.76,1.6 0.23,0.13 0.31,0.55 0.14,0.79l-0.9 1.35c-0.19,0.29 -0.55,0.47 -0.83,0.29 -0.19,-0.11 -2,-1.32 -3.31,-1.32 -1.35,0 -2.1,0.92 -2.1,1.68 0,1.12 0.88,1.88 2.81,2.66 2.31,0.93 4.97,2.31 4.97,5.38 0,2.45 -2.11,4.71 -5.47,4.71zm-14.35 0c-3,0 -4.76,-1.4 -5.24,-1.86 -0.21,-0.21 -0.33,-0.33 -0.11,-0.71l0.85 -1.48c0.19,-0.34 0.59,-0.34 0.81,-0.16 0.12,0.08 2.05,1.47 3.59,1.47 1.24,0 2.16,-0.81 2.16,-1.83 0,-1.22 -1.02,-2.05 -3.02,-2.86 -2.23,-0.91 -4.48,-2.33 -4.48,-5.14 0,-2.12 1.57,-4.58 5.36,-4.58 2.43,0 4.28,1.23 4.76,1.6 0.24,0.13 0.31,0.55 0.15,0.79l-0.9 1.35c-0.19,0.29 -0.55,0.47 -0.84,0.29 -0.18,-0.11 -1.99,-1.32 -3.31,-1.32 -1.35,0 -2.09,0.92 -2.09,1.68 0,1.12 0.88,1.88 2.8,2.66 2.32,0.93 4.98,2.31 4.98,5.38 0,2.45 -2.12,4.71 -5.48,4.71zm-9.23 -14.5c0,0.24 -0.19,0.45 -0.45,0.45l-7.04 0 0 3.91 5.88 0c0.23,0 0.45,0.21 0.45,0.45l0 1.98c0,0.27 -0.22,0.46 -0.45,0.46l-5.88 0 0 4.16 7.04 0c0.27,0 0.45,0.22 0.45,0.45l0 1.95c0,0.24 -0.19,0.45 -0.45,0.45l-9.68 0c-0.26,0 -0.46,-0.21 -0.46,-0.45l0 -15.76c0,-0.24 0.19,-0.45 0.46,-0.45l9.68 0c0.27,0 0.45,0.21 0.45,0.45l0 1.95zm-14.87 0c0,0.24 -0.19,0.45 -0.46,0.45l-7.05 0 0 4.48 5.88 0c0.24,0 0.45,0.21 0.45,0.46l0 1.94c0,0.24 -0.21,0.46 -0.45,0.46l-5.88 0 0 6.02c0,0.24 -0.21,0.45 -0.45,0.45l-2.19 0c-0.26,0 -0.45,-0.21 -0.45,-0.45l0 -15.76c0,-0.24 0.19,-0.45 0.45,-0.45l9.69 0c0.26,0 0.46,0.21 0.46,0.45l0 1.95zm-23.74 14.5c-4.76,0 -8.54,-3.78 -8.54,-8.54 0,-4.77 3.78,-8.6 8.54,-8.6 4.76,0 8.57,3.83 8.57,8.6 0,4.76 -3.81,8.54 -8.57,8.54zm-12.47 -0.93c0.17,0.31 0,0.69 -0.4,0.69l-2.5 0c-0.22,0 -0.34,-0.11 -0.38,-0.21l-3.16 -6.31 -2.65 0 0 6.07c0,0.24 -0.22,0.45 -0.45,0.45l-2.19 0c-0.26,0 -0.45,-0.21 -0.45,-0.45l0 -15.76c0,-0.24 0.19,-0.45 0.45,-0.45l6.81 0c2.85,0 5.19,2.29 5.19,5.12 0,2.19 -1.45,3.98 -3.52,4.81l3.26 6.05zm-21.66 -5.36l-2.97 0 0 5.59c0,0.24 -0.22,0.45 -0.46,0.45l-2.19 0c-0.26,0 -0.45,-0.21 -0.45,-0.45l0 -15.76c0,-0.24 0.19,-0.45 0.45,-0.45l5.59 0c2.92,0 5.34,2.37 5.34,5.26 0,2.96 -2.41,5.36 -5.31,5.36zm339.9 -19.63l-376.69 0 13 17.34 -13 17.36 376.69 0 -13 -17.36 13 -17.34zm-340.11 11.93l-2.76 0 0 4.8 2.76 0c1.33,0 2.45,-1.07 2.45,-2.48 0,-1.3 -1.12,-2.32 -2.45,-2.32zm16.68 -0.07l-3.88 0 0 4.74 3.88 0c1.26,0 2.35,-1.09 2.35,-2.42 0,-1.27 -1.09,-2.32 -2.35,-2.32zm85.38 53.12c1.38,0 1.98,-0.9 1.98,-2.21l0 -2.2c0,-3.4 -6.58,-2.02 -6.58,-6.58l0 -2.21c0,-2.72 2,-3.74 4.11,-3.74 1.04,0 2.1,0.2 2.96,1.17l0.1 0 0.21 -0.99 1.77 0c0,1.62 0,3.25 0,4.88l-2.68 0 0 -1.33c0,-1.29 -0.7,-2 -1.92,-2 -1.23,0 -1.85,0.75 -1.85,2l0 2.21c0,3.15 6.63,1.74 6.63,6.55l0 2.23c0,2.89 -2.39,3.98 -4.86,3.98 -2.5,0 -4.65,-1.22 -4.65,-3.99l0 -1.43 2.94 0 0 1.45c0,1.57 0.68,2.21 1.84,2.21zm11.47 -0.04l1.14 0.78 0 0.75c-1.48,0 -3.43,0 -4.94,0l0 -0.75 1.17 -0.78c0,-5.09 0,-10.16 0,-15.26l-0.99 -0.67 0 -0.76 4.6 0 0 0.76 -0.99 0.67c0,5.1 0,10.17 0,15.26zm8.01 0.73l0 0.81c-1.27,0 -2.78,0 -4.06,0l0 -0.81 1.09 -0.68c0,-5.09 0,-10.2 0,-15.31l-0.99 -0.67 0 -0.76c1.25,0 1.85,0 3.06,0 1.15,0 1.36,0.1 1.64,1.09l2.55 8.11 1.17 5.09 0.06 0c0,-1.33 -0.1,-3.07 -0.1,-4.39l0 -8.42 -0.99 -0.67 0 -0.81c1.27,0 2.54,0 3.81,0l0 0.81 -0.98 0.67c0,5.59 0,11.15 0,16.74l-2.23 0c-0.62,0 -0.96,-0.37 -1.12,-0.89l-4.23 -14.55 -0.08 0.03 0.31 2.61c0,3.76 0,7.55 0,11.32l1.09 0.68zm20.64 -12.37l-2.7 0 0 -0.5c0,-1.64 -0.49,-2.98 -2.37,-3.01 -1.22,0 -2.34,0.83 -2.34,3.12 0,1.09 0,7.92 0,9.02 0,2.16 0.86,3.11 2.42,3.11 1.9,0 2.44,-1.09 2.44,-2.94l0 -0.95 2.7 0 0 0.99c0,3.21 -2.21,4.61 -5.12,4.61 -2.91,0 -5.15,-1.53 -5.15,-4.83 0,-1.1 0,-7.93 0,-9.02 0,-3.09 1.9,-4.83 4.97,-4.83 1.11,0 2.28,0.26 3.07,1.11l0.08 0 0.21 -0.99 1.79 0 0 5.1zm2.89 13.18l0 -0.75 1.17 -0.78c0,-5.13 0,-10.25 0,-15.34l-0.98 -0.67 0 -0.68c3.17,0 6.08,0 9.25,0l0 4.08 -1.29 0 -0.73 -2.55 -3.53 0c0,2.26 0,4.55 0,6.84l2.49 0 0.68 -1.44 0.78 0c0,1.28 0,3.12 0,4.4l-0.78 0 -0.68 -1.38 -2.49 0c0,1.92 0,3.82 0,5.74 0,0.42 -0.1,0.65 -0.54,0.81l0 0.12c1.48,0 2.94,0 4.42,0l0.89 -2.5 1.14 0 0 4.09c-3.25,0 -6.5,0 -9.77,0zm19.4 -16.61l-1.56 -0.49 0 -1.09c1.56,0 2.59,0 4.19,0 0,5.51 0,11.01 0,16.53l1.14 0.81 0 0.86c-1.51,0 -3.43,0 -4.94,0l0 -0.86 1.17 -0.81c0,-5 0,-9.95 0,-14.94zm13.42 2.47c0,-1.69 -0.8,-2.49 -2.06,-2.49 -1.48,0 -2.13,1.14 -2.13,2.57l0 3.71c0,3.17 4.19,3.33 4.19,-0.05l0 -3.74zm-6.89 3.79l0 -3.71c0,-2.86 2.07,-4.28 4.83,-4.28 2.76,0 4.74,1.36 4.74,4.21 0,3.51 0,7.01 0,10.53 0,2.65 -1.98,3.92 -4.6,3.92 -2.71,-0.03 -4.68,-0.83 -4.68,-3.82l0 -0.97 2.62 0 0 0.94c0.03,1.61 0.81,2.18 2.03,2.18 1.22,0 1.97,-0.81 1.97,-2.26 0,-1.59 0,-2.42 0,-4.03 -1.79,2.14 -6.91,1.57 -6.91,-2.7zm20.06 -4.75c0,-1.17 -0.8,-1.71 -1.95,-1.71 -1.09,0 -1.95,0.51 -1.95,1.71l0 3.07c0,1.28 0.81,1.77 1.95,1.77 1.15,0 1.98,-0.49 1.95,-1.77l0 -3.07zm0.51 8.58c0,-1.59 -1.02,-2.3 -2.45,-2.3 -1.42,0 -2.44,0.86 -2.44,2.3l0 2.65c0,1.66 1.02,2.47 2.42,2.47 1.69,0 2.48,-1.03 2.48,-2.47l0 -2.65zm2.75 2.65c0,2.94 -2.29,4.21 -5.2,4.21 -2.88,0 -5.12,-1.14 -5.12,-4.21l0 -2.65c0,-1.18 0.83,-2.56 1.92,-3.05 -0.88,-0.52 -1.37,-1.45 -1.37,-2.49l0 -3.04c0,-2.31 2.13,-3.38 4.6,-3.38 2.47,0 4.52,1.1 4.52,3.38l0 3.04c0,1.04 -0.54,1.9 -1.38,2.49 1.28,0.52 2.03,1.66 2.03,3.05l0 2.65zm5.78 -8.32c3.14,-1.37 6.15,0.76 6.15,4.37l0 3.61c0,2.86 -1.5,4.52 -4.65,4.52 -3.04,0 -4.42,-1.56 -4.42,-4.6l0 -0.93 2.63 0 0 1.02c0,1.43 0.06,2.78 1.79,2.78 1.82,0 1.95,-1.38 1.95,-2.78l0 -3.61c0,-3.48 -2.99,-3.53 -5.35,-2.08l-0.68 -0.65 0.52 -7.64 7.67 0 0 1.69c-1.84,0 -3.51,0 -5.35,0l-0.26 4.31z"/>
 </g>
</svg>
